<svg width="24" height="24" viewBox="0 0 24 24" fill="none" xmlns="http://www.w3.org/2000/svg">
<path d="M17.7102 11.2898L12.7102 6.28984C12.6151 6.19879 12.5029 6.12743 12.3802 6.07984C12.1367 5.97982 11.8636 5.97982 11.6202 6.07984C11.4974 6.12743 11.3853 6.19879 11.2902 6.28984L6.29019 11.2898C6.19695 11.3831 6.12299 11.4938 6.07253 11.6156C6.02207 11.7374 5.99609 11.868 5.99609 11.9998C5.99609 12.2661 6.10188 12.5215 6.29019 12.7098C6.47849 12.8981 6.73388 13.0039 7.00019 13.0039C7.26649 13.0039 7.52188 12.8981 7.71019 12.7098L11.0002 9.40984V16.9998C11.0002 17.2651 11.1055 17.5194 11.2931 17.7069C11.4806 17.8945 11.735 17.9998 12.0002 17.9998C12.2654 17.9998 12.5198 17.8945 12.7073 17.7069C12.8948 17.5194 13.0002 17.2651 13.0002 16.9998V9.40984L16.2902 12.7098C16.3831 12.8036 16.4937 12.878 16.6156 12.9287C16.7375 12.9795 16.8682 13.0056 17.0002 13.0056C17.1322 13.0056 17.2629 12.9795 17.3848 12.9287C17.5066 12.878 17.6172 12.8036 17.7102 12.7098C17.8039 12.6169 17.8783 12.5063 17.9291 12.3844C17.9798 12.2626 18.006 12.1318 18.006 11.9998C18.006 11.8678 17.9798 11.7371 17.9291 11.6153C17.8783 11.4934 17.8039 11.3828 17.7102 11.2898Z" fill="#FD8589"/>
</svg>
