<svg width="96" height="64" viewBox="0 0 96 64" fill="none" xmlns="http://www.w3.org/2000/svg">
<rect opacity="0.05" width="96" height="64" rx="8" fill="#E0E0E0"/>
<g clip-path="url(#clip0_8_1587)">
<path d="M67.4017 36.8367C64.7295 47.5567 53.8684 54.0732 43.1637 51.4009C32.4434 48.7287 25.9269 37.8681 28.5992 27.1635C31.2714 16.4435 42.1167 9.92698 52.837 12.5993C63.5417 15.2559 70.074 26.1165 67.4017 36.8367Z" fill="#E0E0E0"/>
<path d="M57.523 29.5081C57.9136 26.8519 55.8979 25.4144 53.1167 24.4612L54.023 20.8519L51.8355 20.305L50.9605 23.8206C50.3823 23.68 49.7886 23.5394 49.1948 23.4144L50.0698 19.8831L47.8823 19.3362L46.9917 22.93C46.5073 22.8206 46.0386 22.7112 45.5854 22.6019V22.5862L42.5542 21.8362L41.9761 24.18C41.9761 24.18 43.6011 24.555 43.5698 24.5706C44.4604 24.7894 44.6167 25.3831 44.5854 25.8519L43.5542 29.9612C43.6167 29.9769 43.6948 29.9925 43.7886 30.0394C43.7104 30.0237 43.6323 30.0081 43.5542 29.9769L42.1167 35.7269C42.0073 35.9925 41.7261 36.3987 41.1167 36.2425C41.1323 36.2737 39.5229 35.8519 39.5229 35.8519L38.4292 38.3675L41.2886 39.0862C41.8198 39.2269 42.3354 39.3519 42.8511 39.4925L41.9448 43.1331L44.1323 43.68L45.0386 40.0706C45.6323 40.2269 46.2261 40.3831 46.7886 40.5237L45.8979 44.1175L48.0854 44.6644L48.9917 41.0237C52.7417 41.7269 55.5542 41.4456 56.7261 38.055C57.6792 35.3362 56.6792 33.7581 54.7105 32.7269C56.1636 32.3987 57.2417 31.4456 57.523 29.5081ZM52.5073 36.5394C51.8355 39.2581 47.2417 37.7894 45.7573 37.4144L46.9605 32.5862C48.4448 32.9612 53.2261 33.6956 52.5073 36.5394ZM53.1948 29.4612C52.5698 31.9456 48.7573 30.68 47.5229 30.3675L48.6167 25.9925C49.8511 26.305 53.8354 26.8831 53.1948 29.4612Z" fill="#0D0D2B"/>
</g>
<defs>
<clipPath id="clip0_8_1587">
<rect width="40" height="40" fill="white" transform="translate(28 12)"/>
</clipPath>
</defs>
</svg>
