<svg width="521.000000" height="47.000000" viewBox="0 0 521 47" fill="none" xmlns="http://www.w3.org/2000/svg" xmlns:xlink="http://www.w3.org/1999/xlink">
	<desc>
			Created with Pixso.
	</desc>
	<defs>
		<clipPath id="clip24_45">
			<rect id="logos:bitcoin" width="39.999992" height="40.000000" transform="translate(0.000000 3.000000)" fill="white" fill-opacity="0"/>
		</clipPath>
		<clipPath id="clip24_52">
			<rect id="ant-design:caret-up-outlined" width="9.999998" height="10.000000" transform="translate(305.000000 19.000000)" fill="white" fill-opacity="0"/>
		</clipPath>
		<linearGradient id="paint_linear_24_46_0" x1="19.989182" y1="2.990396" x2="19.989182" y2="42.995956" gradientUnits="userSpaceOnUse">
			<stop stop-color="#F9AA4B"/>
			<stop offset="1.000000" stop-color="#F7931A"/>
		</linearGradient>
	</defs>
	<path id="Bitcoin" d="M57.4102 44L61.6133 44C64.3633 44 65.5 42.6602 65.5 40.9102C65.5 39.0664 64.2266 38.0664 63.1602 38L63.1602 37.8867C64.1602 37.6133 65.0469 36.9531 65.0469 35.4531C65.0469 33.75 63.9102 32.3633 61.4766 32.3633L57.4102 32.3633L57.4102 44ZM58.8164 42.75L58.8164 38.7031L61.6836 38.7031C63.2031 38.7031 64.1602 39.7266 64.1602 40.9102C64.1602 41.9336 63.4531 42.75 61.6133 42.75L58.8164 42.75ZM58.8164 37.4766L58.8164 33.6133L61.4766 33.6133C63.0234 33.6133 63.7031 34.4336 63.7031 35.4531C63.7031 36.6836 62.7031 37.4766 61.4336 37.4766L58.8164 37.4766ZM67.7957 44L69.1355 44L69.1355 35.2734L67.7957 35.2734L67.7957 44ZM68.4792 33.8164C69.0027 33.8164 69.4324 33.4102 69.4324 32.9102C69.4324 32.4102 69.0027 32 68.4792 32C67.9558 32 67.5222 32.4102 67.5222 32.9102C67.5222 33.4102 67.9558 33.8164 68.4792 33.8164ZM75.548 35.2734L73.6847 35.2734L73.6847 33.1836L72.341 33.1836L72.341 35.2734L71.0245 35.2734L71.0245 36.4102L72.341 36.4102L72.341 41.8633C72.341 43.3867 73.5714 44.1133 74.7081 44.1133C75.2081 44.1133 75.5245 44.0234 75.7081 43.9531L75.4347 42.75C75.3214 42.7734 75.1378 42.8164 74.841 42.8164C74.2511 42.8164 73.6847 42.6367 73.6847 41.5L73.6847 36.4102L75.548 36.4102L75.548 35.2734ZM81.1853 44.1836C83.1149 44.1836 84.3884 43 84.6149 41.4531L83.2751 41.4531C83.0251 42.4102 82.2282 42.9766 81.1853 42.9766C79.5954 42.9766 78.572 41.6602 78.572 39.6367C78.572 37.6602 79.6149 36.3633 81.1853 36.3633C82.3649 36.3633 83.072 37.0898 83.2751 37.8867L84.6149 37.8867C84.3884 36.25 83.0017 35.1602 81.1618 35.1602C78.7985 35.1602 77.2282 37.0234 77.2282 39.6836C77.2282 42.2969 78.7282 44.1836 81.1853 44.1836ZM90.2771 44.1836C92.6404 44.1836 94.2302 42.3867 94.2302 39.6836C94.2302 36.9531 92.6404 35.1602 90.2771 35.1602C87.9138 35.1602 86.32 36.9531 86.32 39.6836C86.32 42.3867 87.9138 44.1836 90.2771 44.1836ZM90.2771 42.9766C88.4802 42.9766 87.6638 41.4336 87.6638 39.6836C87.6638 37.9336 88.4802 36.3633 90.2771 36.3633C92.07 36.3633 92.8904 37.9336 92.8904 39.6836C92.8904 41.4336 92.07 42.9766 90.2771 42.9766ZM96.4357 44L97.7755 44L97.7755 35.2734L96.4357 35.2734L96.4357 44ZM97.1192 33.8164C97.6427 33.8164 98.0724 33.4102 98.0724 32.9102C98.0724 32.4102 97.6427 32 97.1192 32C96.5958 32 96.1622 32.4102 96.1622 32.9102C96.1622 33.4102 96.5958 33.8164 97.1192 33.8164ZM101.731 38.75C101.731 37.2266 102.676 36.3633 103.961 36.3633C105.204 36.3633 105.961 37.1758 105.961 38.5469L105.961 44L107.301 44L107.301 38.4531C107.301 36.2266 106.114 35.1602 104.348 35.1602C103.028 35.1602 102.211 35.75 101.801 36.6367L101.688 36.6367L101.688 35.2734L100.391 35.2734L100.391 44L101.731 44L101.731 38.75Z" fill="#F2F2F2" fill-opacity="1.000000" fill-rule="evenodd"/>
	<path id="BTC" d="M57.2646 19L63.4805 19C66.7471 19 68.4854 17.2959 68.4854 14.9814C68.4854 12.8281 66.9424 11.5293 65.292 11.4512L65.292 11.3096C66.8008 10.9678 67.9189 9.89355 67.9189 8.18457C67.9189 6.00195 66.2979 4.4541 63.0898 4.4541L57.2646 4.4541L57.2646 19ZM60.3408 16.4854L60.3408 12.623L62.9189 12.623C64.3936 12.623 65.3115 13.4727 65.3115 14.6738C65.3115 15.7676 64.5645 16.4854 62.8457 16.4854L60.3408 16.4854ZM60.3408 10.543L60.3408 6.93945L62.6748 6.93945C64.042 6.93945 64.8135 7.64258 64.8135 8.69238C64.8135 9.84473 63.876 10.543 62.6211 10.543L60.3408 10.543ZM69.9253 6.98828L74.3785 6.98828L74.3785 19L77.4205 19L77.4205 6.98828L81.8736 6.98828L81.8736 4.4541L69.9253 4.4541L69.9253 6.98828ZM96.0342 9.54688C95.6289 6.1875 93.0898 4.25391 89.7207 4.25391C85.8779 4.25391 82.9482 6.96875 82.9482 11.7295C82.9482 16.4707 85.8291 19.2002 89.7207 19.2002C93.4512 19.2002 95.7021 16.7197 96.0342 14.0439L92.9238 14.0293C92.6357 15.582 91.4102 16.4805 89.7695 16.4805C87.5625 16.4805 86.0635 14.8398 86.0635 11.7295C86.0635 8.70215 87.543 6.97363 89.7939 6.97363C91.4736 6.97363 92.6895 7.9502 92.9238 9.54688L96.0342 9.54688Z" fill="#FFFFFF" fill-opacity="1.000000" fill-rule="evenodd"/>
	<ellipse id="Ellipse 9" cx="20.000000" cy="23.000000" rx="19.999996" ry="20.000000" fill="#C4C4C4" fill-opacity="1.000000"/>
	<rect id="logos:bitcoin" width="39.999992" height="40.000000" transform="translate(0.000000 3.000000)" fill="#FFFFFF" fill-opacity="0"/>
	<g clip-path="url(#clip24_45)">
		<path id="Vector" d="M39.4019 27.8365C36.7295 38.5565 25.8687 45.0731 15.1636 42.4008C4.44336 39.7286 -2.07324 28.868 0.599121 18.1634C3.27148 7.44342 14.1167 0.926849 24.8369 3.5992C35.5415 6.25577 42.0742 17.1164 39.4019 27.8365Z" fill="url(#paint_linear_24_46_0)" fill-opacity="1.000000" fill-rule="nonzero"/>
		<path id="Vector" d="M29.5225 20.5078C29.9131 17.8516 27.8975 16.4141 25.1162 15.4609L26.0225 11.8516L23.835 11.3047L22.96 14.8203C22.3818 14.6797 21.7881 14.5391 21.1943 14.4141L22.0693 10.8828L19.8818 10.3359L18.9912 13.9297C18.5068 13.8203 18.0381 13.7109 17.585 13.6016L17.585 13.5859L14.5537 12.8359L13.9756 15.1797C13.9756 15.1797 15.6006 15.5547 15.5693 15.5703C16.46 15.7891 16.6162 16.3828 16.585 16.8516L15.5537 20.9609C15.6162 20.9766 15.6943 20.9922 15.7881 21.0391C15.71 21.0234 15.6318 21.0078 15.5537 20.9766L14.1162 26.7266C14.0068 26.9922 13.7256 27.3984 13.1162 27.2422C13.1318 27.2734 11.5225 26.8516 11.5225 26.8516L10.4287 29.3672L13.2881 30.0859C13.8193 30.2266 14.335 30.3516 14.8506 30.4922L13.9443 34.1328L16.1318 34.6797L17.0381 31.0703C17.6318 31.2266 18.2256 31.3828 18.7881 31.5234L17.8975 35.1172L20.085 35.6641L20.9912 32.0234C24.7412 32.7266 27.5537 32.4453 28.7256 29.0547C29.6787 26.3359 28.6787 24.7578 26.71 23.7266C28.1631 23.3984 29.2412 22.4453 29.5225 20.5078ZM24.5068 27.5391C23.835 30.2578 19.2412 28.7891 17.7568 28.4141L18.96 23.5859C20.4443 23.9609 25.2256 24.6953 24.5068 27.5391ZM25.1943 20.4609C24.5693 22.9453 20.7568 21.6797 19.5225 21.3672L20.6162 16.9922C21.8506 17.3047 25.835 17.8828 25.1943 20.4609Z" fill="#FFFFFF" fill-opacity="1.000000" fill-rule="nonzero"/>
	</g>
	<path id="$6750" d="M185.637 31.4531L186.566 31.4531L186.566 30.1875C188.953 30.0234 190.297 28.6133 190.297 26.8398C190.297 24.6602 188.227 23.9531 187.023 23.6367L186.566 23.5117L186.566 19.4727C187.773 19.5898 188.648 20.2383 188.773 21.2734L190.137 21.2734C190.078 19.6133 188.625 18.3516 186.566 18.2148L186.566 16.9102L185.637 16.9102L185.637 18.2344C183.688 18.4336 182.227 19.6719 182.227 21.4531C182.227 23.0234 183.363 23.9531 185.184 24.4766L185.637 24.6094L185.637 28.9102C184.441 28.7852 183.465 28.1719 183.363 27L181.91 27C182.039 28.7891 183.402 30.0391 185.637 30.1875L185.637 31.4531ZM186.566 28.9102L186.566 24.875L186.613 24.8867C187.84 25.2266 188.934 25.6602 188.934 26.8164C188.934 27.9609 187.941 28.7539 186.566 28.9102ZM185.637 23.2617C184.773 23.0156 183.59 22.5391 183.59 21.3867C183.59 20.4023 184.387 19.6523 185.637 19.4883L185.637 23.2617ZM196.271 30.1602C198.626 30.1875 200.158 28.4141 200.158 26.25C200.158 24 198.494 22.3867 196.501 22.3867C195.302 22.3867 194.271 22.9727 193.638 23.9336L193.544 23.9336C193.552 21.0977 194.654 19.4531 196.455 19.4531C197.681 19.4531 198.419 20.2266 198.681 21.2734L200.068 21.2734C199.783 19.4648 198.408 18.2031 196.455 18.2031C193.833 18.2031 192.228 20.5234 192.228 24.6367C192.228 28.9375 194.365 30.1367 196.271 30.1602ZM196.271 28.9102C194.814 28.9102 193.744 27.6641 193.751 26.2734C193.755 24.8789 194.876 23.6367 196.318 23.6367C197.744 23.6367 198.794 24.8086 198.794 26.25C198.794 27.7266 197.701 28.9102 196.271 28.9102ZM202.748 30L204.229 30L209.408 19.6836L209.408 18.3633L201.955 18.3633L201.955 19.6133L207.955 19.6133L207.955 19.7031L202.748 30ZM214.999 30.1602C217.218 30.1602 218.843 28.5234 218.843 26.2969C218.843 24.0391 217.272 22.3867 215.136 22.3867C214.35 22.3867 213.593 22.6641 213.112 23.0469L213.046 23.0469L213.456 19.6133L218.319 19.6133L218.319 18.3633L212.272 18.3633L211.569 24.0898L212.886 24.25C213.37 23.9023 214.194 23.6523 214.909 23.6602C216.393 23.6719 217.475 24.7969 217.475 26.3164C217.475 27.8125 216.433 28.9102 214.999 28.9102C213.808 28.9102 212.858 28.1406 212.749 27.0898L211.386 27.0898C211.472 28.8633 212.999 30.1602 214.999 30.1602ZM224.886 30.1602C227.453 30.1602 228.933 27.9844 228.933 24.1836C228.933 20.4102 227.433 18.2031 224.886 18.2031C222.339 18.2031 220.839 20.4102 220.839 24.1836C220.839 27.9844 222.32 30.1602 224.886 30.1602ZM224.886 28.9102C223.195 28.9102 222.203 27.2109 222.203 24.1836C222.203 21.1602 223.203 19.4336 224.886 19.4336C226.57 19.4336 227.57 21.1602 227.57 24.1836C227.57 27.2109 226.578 28.9102 224.886 28.9102Z" fill="#F2F2F2" fill-opacity="1.000000" fill-rule="evenodd"/>
	<g opacity="0.100000">
		<ellipse id="Ellipse 44" cx="310.000000" cy="24.000000" rx="7.999998" ry="8.000000" fill="#8FFFBE" fill-opacity="1.000000"/>
	</g>
	<rect id="ant-design:caret-up-outlined" width="9.999998" height="10.000000" transform="translate(305.000000 19.000000)" fill="#FFFFFF" fill-opacity="0"/>
	<g clip-path="url(#clip24_52)">
		<path id="Vector" d="M313.388 25.7288L310.181 22.01C310.089 21.9036 309.912 21.9036 309.819 22.01L306.612 25.7288C306.493 25.8674 306.601 26.0706 306.793 26.0706L313.207 26.0706C313.399 26.0706 313.507 25.8674 313.388 25.7288Z" fill="#8FFFBE" fill-opacity="1.000000" fill-rule="nonzero"/>
	</g>
	<path id="+7.3%" d="M330.637 27.9531L331.91 27.9531L331.91 24.8398L335.023 24.8398L335.023 23.5664L331.91 23.5664L331.91 20.4531L330.637 20.4531L330.637 23.5664L327.523 23.5664L327.523 24.8398L330.637 24.8398L330.637 27.9531ZM337.748 30L339.229 30L344.408 19.6836L344.408 18.3633L336.955 18.3633L336.955 19.6133L342.955 19.6133L342.955 19.7031L337.748 30ZM345.521 30.0898C346.084 30.0898 346.545 29.6289 346.545 29.0664C346.545 28.5039 346.084 28.0469 345.521 28.0469C344.959 28.0469 344.502 28.5039 344.502 29.0664C344.502 29.6289 344.959 30.0898 345.521 30.0898ZM352.432 30.1602C354.686 30.1602 356.362 28.7461 356.362 26.8398C356.362 25.3633 355.487 24.2891 354.022 24.0469L354.022 23.9531C355.198 23.5977 355.932 22.6289 355.932 21.3164C355.932 19.6719 354.631 18.2031 352.479 18.2031C350.467 18.2031 348.795 19.4414 348.729 21.2734L350.092 21.2734C350.143 20.1133 351.245 19.4336 352.456 19.4336C353.737 19.4336 354.569 20.2109 354.569 21.3867C354.569 22.6133 353.608 23.4102 352.229 23.4102L351.295 23.4102L351.295 24.6602L352.229 24.6602C353.995 24.6602 354.979 25.5586 354.979 26.8398C354.979 28.0742 353.905 28.9102 352.409 28.9102C351.061 28.9102 349.995 28.2148 349.909 27.0898L348.479 27.0898C348.561 28.9219 350.174 30.1602 352.432 30.1602ZM364.614 27.8164C364.614 29.0898 365.411 30.1602 366.887 30.1602C368.341 30.1602 369.137 29.0898 369.137 27.8164L369.137 27.2031C369.137 25.9336 368.364 24.8633 366.887 24.8633C365.43 24.8633 364.614 25.9336 364.614 27.2031L364.614 27.8164ZM358.817 21.1602C358.817 22.4336 359.614 23.5 361.091 23.5C362.544 23.5 363.341 22.4336 363.341 21.1602L363.341 20.5469C363.341 19.2734 362.567 18.2031 361.091 18.2031C359.637 18.2031 358.817 19.2734 358.817 20.5469L358.817 21.1602ZM359.251 30L360.544 30L368.544 18.3633L367.251 18.3633L359.251 30ZM365.774 27.2031C365.774 26.5 366.091 25.8398 366.887 25.8398C367.704 25.8398 367.977 26.5 367.977 27.2031L367.977 27.8164C367.977 28.5234 367.68 29.1836 366.887 29.1836C366.067 29.1836 365.774 28.5234 365.774 27.8164L365.774 27.2031ZM359.977 20.5469C359.977 19.8398 360.294 19.1836 361.091 19.1836C361.911 19.1836 362.18 19.8398 362.18 20.5469L362.18 21.1602C362.18 21.8633 361.887 22.5234 361.091 22.5234C360.274 22.5234 359.977 21.8633 359.977 21.1602L359.977 20.5469Z" fill="#8FFFBE" fill-opacity="1.000000" fill-rule="evenodd"/>
	<path id="$3420214" d="M447.637 31.4531L448.566 31.4531L448.566 30.1875C450.953 30.0234 452.297 28.6133 452.297 26.8398C452.297 24.6602 450.227 23.9531 449.023 23.6367L448.566 23.5117L448.566 19.4727C449.773 19.5898 450.648 20.2383 450.773 21.2734L452.137 21.2734C452.078 19.6133 450.625 18.3516 448.566 18.2148L448.566 16.9102L447.637 16.9102L447.637 18.2344C445.688 18.4336 444.227 19.6719 444.227 21.4531C444.227 23.0234 445.363 23.9531 447.184 24.4766L447.637 24.6094L447.637 28.9102C446.441 28.7852 445.465 28.1719 445.363 27L443.91 27C444.039 28.7891 445.402 30.0391 447.637 30.1875L447.637 31.4531ZM448.566 28.9102L448.566 24.875L448.613 24.8867C449.84 25.2266 450.934 25.6602 450.934 26.8164C450.934 27.9609 449.941 28.7539 448.566 28.9102ZM447.637 23.2617C446.773 23.0156 445.59 22.5391 445.59 21.3867C445.59 20.4023 446.387 19.6523 447.637 19.4883L447.637 23.2617ZM458.341 30.1602C460.595 30.1602 462.271 28.7461 462.271 26.8398C462.271 25.3633 461.396 24.2891 459.931 24.0469L459.931 23.9531C461.107 23.5977 461.841 22.6289 461.841 21.3164C461.841 19.6719 460.54 18.2031 458.388 18.2031C456.376 18.2031 454.705 19.4414 454.638 21.2734L456.001 21.2734C456.052 20.1133 457.154 19.4336 458.365 19.4336C459.646 19.4336 460.478 20.2109 460.478 21.3867C460.478 22.6133 459.517 23.4102 458.138 23.4102L457.205 23.4102L457.205 24.6602L458.138 24.6602C459.904 24.6602 460.888 25.5586 460.888 26.8398C460.888 28.0742 459.814 28.9102 458.318 28.9102C456.97 28.9102 455.904 28.2148 455.818 27.0898L454.388 27.0898C454.47 28.9219 456.083 30.1602 458.341 30.1602ZM464.32 27.6133L469.797 27.6133L469.797 30L471.136 30L471.136 27.6133L472.726 27.6133L472.726 26.3633L471.136 26.3633L471.136 18.3633L469.433 18.3633L464.32 26.4531L464.32 27.6133ZM469.797 26.3633L465.839 26.3633L465.839 26.2734L469.703 20.1602L469.797 20.1602L469.797 26.3633ZM474.862 30L482.206 30L482.206 28.75L476.796 28.75L476.796 28.6602L479.409 25.8633C481.409 23.7227 481.999 22.7227 481.999 21.4336C481.999 19.6367 480.546 18.2031 478.499 18.2031C476.46 18.2031 474.909 19.5898 474.909 21.6367L476.249 21.6367C476.249 20.3125 477.108 19.4336 478.456 19.4336C479.718 19.4336 480.683 20.2031 480.683 21.4336C480.683 22.5039 480.05 23.3008 478.706 24.7734L474.862 28.9766L474.862 30ZM488.341 30.1602C490.907 30.1602 492.388 27.9844 492.388 24.1836C492.388 20.4102 490.888 18.2031 488.341 18.2031C485.794 18.2031 484.294 20.4102 484.294 24.1836C484.294 27.9844 485.775 30.1602 488.341 30.1602ZM488.341 28.9102C486.65 28.9102 485.657 27.2109 485.657 24.1836C485.657 21.1602 486.657 19.4336 488.341 19.4336C490.025 19.4336 491.025 21.1602 491.025 24.1836C491.025 27.2109 490.032 28.9102 488.341 28.9102ZM494.544 30L501.888 30L501.888 28.75L496.478 28.75L496.478 28.6602L499.091 25.8633C501.091 23.7227 501.681 22.7227 501.681 21.4336C501.681 19.6367 500.228 18.2031 498.181 18.2031C496.142 18.2031 494.591 19.5898 494.591 21.6367L495.931 21.6367C495.931 20.3125 496.79 19.4336 498.138 19.4336C499.4 19.4336 500.364 20.2031 500.364 21.4336C500.364 22.5039 499.732 23.3008 498.388 24.7734L494.544 28.9766L494.544 30ZM508.32 18.3633L506.909 18.3633L503.999 20.2969L503.999 21.7266L506.839 19.8398L506.909 19.8398L506.909 30L508.32 30L508.32 18.3633ZM511.388 27.6133L516.865 27.6133L516.865 30L518.205 30L518.205 27.6133L519.794 27.6133L519.794 26.3633L518.205 26.3633L518.205 18.3633L516.501 18.3633L511.388 26.4531L511.388 27.6133ZM516.865 26.3633L512.908 26.3633L512.908 26.2734L516.771 20.1602L516.865 20.1602L516.865 26.3633Z" fill="#F2F2F2" fill-opacity="1.000000" fill-rule="evenodd"/>
</svg>
