<svg width="1289" height="138" viewBox="0 0 1289 138" fill="none" xmlns="http://www.w3.org/2000/svg">
<path d="M35.801 57.5619C23.8839 57.5619 2 72.5504 2 72.5504V138H502V22.5888C502 22.5888 480.954 31.744 471.388 28.5843C457.902 24.1301 445.24 2.75412 436.949 2.10453C424.194 1.10517 428.02 7.60042 401.872 7.6004C377 7.60038 388.185 20.5904 363.607 20.5904C350.15 20.5904 330.444 31.5848 330.444 31.5848H291.541C273.046 31.5848 269.276 63.9031 248.811 61.5617C228.976 59.2922 229.679 54.0646 213.735 54.0646C198.14 54.0646 195.738 61.7107 179.934 60.06C160.801 58.0615 161.439 36.5781 135.291 36.5781C103.403 36.5781 97.6633 63.0577 72.1531 65.0561C53.4237 66.5234 56.3698 57.5619 35.801 57.5619Z" fill="url(#paint0_linear_209_55)"/>
<path d="M2 73.0002C2 73.0002 23.8839 58.0002 35.801 58.0002C56.3698 58.0002 53.4237 66.9685 72.1531 65.5002C97.6633 63.5002 103.403 37.0002 135.291 37.0002C161.439 37.0002 160.801 58.5002 179.934 60.5002C195.738 62.1522 198.14 54.5002 213.735 54.5002C229.679 54.5002 228.976 59.7318 248.811 62.003C269.276 64.3462 273.046 32.003 291.541 32.003C307.139 32.003 330.444 32.003 330.444 32.003C330.444 32.003 350.15 21.0002 363.607 21.0002C388.185 21.0002 377 8.00015 401.872 8.00017C428.02 8.00019 424.194 1.49994 436.949 2.50008C445.24 3.15016 457.902 24.5426 471.388 29.0002C480.954 32.1624 502 23.0002 502 23.0002" stroke="#6EDCB5" stroke-width="4"/>
<path d="M788 138H502V23L516 18L526 20L542.5 22L551.5 26L564 39.5L581 53.5L603.5 60L616.5 66.5L632 76.5L648.5 79.5L657.5 73.5L675 51L680.5 45.5L691.5 41.5L703 43L709.5 49L719.5 62.5L734.5 74.5L757 79.5L780 78L788 74.5V138Z" fill="url(#paint1_linear_209_55)"/>
<path d="M501 23.5C501 23.5 506.5 20 512.5 18.5C518.5 17 520.5 19.5 538.5 21.5C556.5 23.5 567 45 577 51C587 57 604 58.5 611.5 63.5C619 68.5 637.5 79.5 645.5 79.5C653.5 79.5 659 72 666 63.5C673 55 678 42 690.5 41.5C703 41 706.5 45.5 706.5 45.5C706.5 45.5 713.5 54 717.5 60C721.5 66 730.5 73.5 735.5 74.5C740.5 75.5 748 79.5 762 79.5C776 79.5 780 78.5 784 75.5C788 72.5 789.5 71.5 789.5 71.5C789.5 71.5 794.5 69 790.5 71" stroke="#6EDCB5" stroke-width="4"/>
<path d="M821.801 57.5619C809.884 57.5619 788 72.5504 788 72.5504V138H1288V22.5888C1288 22.5888 1266.95 31.744 1257.39 28.5843C1243.9 24.1301 1231.24 2.75412 1222.95 2.10453C1210.19 1.10517 1214.02 7.60042 1187.87 7.6004C1163 7.60038 1174.18 20.5904 1149.61 20.5904C1136.15 20.5904 1116.44 31.5848 1116.44 31.5848H1077.54C1059.05 31.5848 1055.28 63.9031 1034.81 61.5617C1014.98 59.2922 1015.68 54.0646 999.735 54.0646C984.14 54.0646 981.738 61.7107 965.934 60.06C946.801 58.0615 947.439 36.5781 921.291 36.5781C889.403 36.5781 883.663 63.0577 858.153 65.0561C839.424 66.5234 842.37 57.5619 821.801 57.5619Z" fill="url(#paint2_linear_209_55)"/>
<path d="M788 72.6047C788 72.6047 809.884 57.6047 821.801 57.6047C842.37 57.6047 839.424 66.573 858.153 65.1047C883.663 63.1047 889.403 36.6047 921.291 36.6047C947.439 36.6047 946.801 58.1047 965.934 60.1047C981.738 61.7567 984.14 54.1047 999.735 54.1047C1015.68 54.1047 1014.98 59.3363 1034.81 61.6075C1055.28 63.9507 1059.05 31.6075 1077.54 31.6075C1093.14 31.6075 1116.44 31.6075 1116.44 31.6075C1116.44 31.6075 1136.15 20.6047 1149.61 20.6047C1174.18 20.6047 1163 7.60464 1187.87 7.60466C1214.02 7.60468 1210.19 1.10443 1222.95 2.10457C1231.24 2.75466 1243.9 24.1471 1257.39 28.6047C1266.95 31.7669 1288 22.6047 1288 22.6047" stroke="#6EDCB5" stroke-width="4"/>
<defs>
<linearGradient id="paint0_linear_209_55" x1="252" y1="2" x2="252" y2="138" gradientUnits="userSpaceOnUse">
<stop stop-color="#6EDCB5" stop-opacity="0.4"/>
<stop offset="1" stop-color="#6EDCB5" stop-opacity="0"/>
</linearGradient>
<linearGradient id="paint1_linear_209_55" x1="645" y1="-3.60202e-07" x2="645" y2="138" gradientUnits="userSpaceOnUse">
<stop stop-color="#6EDCB5" stop-opacity="0.4"/>
<stop offset="1" stop-color="#6EDCB5" stop-opacity="0"/>
</linearGradient>
<linearGradient id="paint2_linear_209_55" x1="1038" y1="2" x2="1038" y2="138" gradientUnits="userSpaceOnUse">
<stop stop-color="#6EDCB5" stop-opacity="0.4"/>
<stop offset="1" stop-color="#6EDCB5" stop-opacity="0"/>
</linearGradient>
</defs>
</svg>
