<svg width="179" height="50" viewBox="0 0 179 50" fill="none" xmlns="http://www.w3.org/2000/svg">
<path d="M60.375 47.1392C62.6222 47.1392 63.9148 45.2351 63.9148 41.9091C63.9148 38.608 62.6023 36.679 60.375 36.679C58.1477 36.679 56.8352 38.608 56.8352 41.9091C56.8352 45.2351 58.1278 47.1392 60.375 47.1392ZM60.375 46.0455C58.8935 46.0455 58.0284 44.5589 58.0284 41.9091C58.0284 39.2642 58.9034 37.7528 60.375 37.7528C61.8466 37.7528 62.7216 39.2642 62.7216 41.9091C62.7216 44.5589 61.8565 46.0455 60.375 46.0455ZM66.4635 47.0795C66.9557 47.0795 67.3584 46.6768 67.3584 46.1847C67.3584 45.6925 66.9557 45.2898 66.4635 45.2898C65.9713 45.2898 65.5686 45.6925 65.5686 46.1847C65.5686 46.6768 65.9713 47.0795 66.4635 47.0795ZM72.5495 47.1392C74.7967 47.1392 76.0893 45.2351 76.0893 41.9091C76.0893 38.608 74.7768 36.679 72.5495 36.679C70.3223 36.679 69.0098 38.608 69.0098 41.9091C69.0098 45.2351 70.3024 47.1392 72.5495 47.1392ZM72.5495 46.0455C71.068 46.0455 70.2029 44.5589 70.2029 41.9091C70.2029 39.2642 71.0779 37.7528 72.5495 37.7528C74.0211 37.7528 74.8961 39.2642 74.8961 41.9091C74.8961 44.5589 74.0311 46.0455 72.5495 46.0455ZM81.4395 47.1392C83.6867 47.1392 84.9793 45.2351 84.9793 41.9091C84.9793 38.608 83.6668 36.679 81.4395 36.679C79.2123 36.679 77.8998 38.608 77.8998 41.9091C77.8998 45.2351 79.1924 47.1392 81.4395 47.1392ZM81.4395 46.0455C79.958 46.0455 79.0929 44.5589 79.0929 41.9091C79.0929 39.2642 79.9679 37.7528 81.4395 37.7528C82.9111 37.7528 83.7861 39.2642 83.7861 41.9091C83.7861 44.5589 82.9211 46.0455 81.4395 46.0455ZM90.3295 47.1392C92.5767 47.1392 93.8693 45.2351 93.8693 41.9091C93.8693 38.608 92.5568 36.679 90.3295 36.679C88.1023 36.679 86.7898 38.608 86.7898 41.9091C86.7898 45.2351 88.0824 47.1392 90.3295 47.1392ZM90.3295 46.0455C88.848 46.0455 87.9829 44.5589 87.9829 41.9091C87.9829 39.2642 88.8579 37.7528 90.3295 37.7528C91.8011 37.7528 92.6761 39.2642 92.6761 41.9091C92.6761 44.5589 91.8111 46.0455 90.3295 46.0455ZM99.1599 47.1392C101.193 47.1392 102.61 45.951 102.62 44.2955C102.61 43.0078 101.75 41.9141 100.651 41.7102V41.6506C101.606 41.402 102.232 40.4673 102.242 39.3835C102.232 37.8324 100.93 36.679 99.1599 36.679C97.3701 36.679 96.0675 37.8324 96.0775 39.3835C96.0675 40.4673 96.694 41.402 97.6684 41.6506V41.7102C96.5498 41.9141 95.6897 43.0078 95.6996 44.2955C95.6897 45.951 97.1066 47.1392 99.1599 47.1392ZM99.1599 46.0455C97.7629 46.0455 96.9028 45.3295 96.9127 44.2358C96.9028 43.0874 97.8523 42.267 99.1599 42.267C100.448 42.267 101.397 43.0874 101.407 44.2358C101.397 45.3295 100.537 46.0455 99.1599 46.0455ZM99.1599 41.2131C98.0462 41.2131 97.2607 40.517 97.2707 39.4631C97.2607 38.429 98.0164 37.7528 99.1599 37.7528C100.283 37.7528 101.039 38.429 101.049 39.4631C101.039 40.517 100.254 41.2131 99.1599 41.2131ZM107.986 47.1392C110.234 47.1392 111.526 45.2351 111.526 41.9091C111.526 38.608 110.214 36.679 107.986 36.679C105.759 36.679 104.447 38.608 104.447 41.9091C104.447 45.2351 105.739 47.1392 107.986 47.1392ZM107.986 46.0455C106.505 46.0455 105.64 44.5589 105.64 41.9091C105.64 39.2642 106.515 37.7528 107.986 37.7528C109.458 37.7528 110.333 39.2642 110.333 41.9091C110.333 44.5589 109.468 46.0455 107.986 46.0455ZM117.812 47H121.491C123.897 47 124.891 45.8267 124.891 44.2955C124.891 42.6847 123.778 41.8097 122.843 41.75V41.6506C123.718 41.4119 124.494 40.8352 124.494 39.5227C124.494 38.0312 123.499 36.8182 121.372 36.8182H117.812V47ZM119.045 45.9062V42.3665H121.551C122.883 42.3665 123.718 43.2614 123.718 44.2955C123.718 45.1903 123.102 45.9062 121.491 45.9062H119.045ZM119.045 41.2926V37.9119H121.372C122.724 37.9119 123.32 38.6278 123.32 39.5227C123.32 40.5966 122.445 41.2926 121.332 41.2926H119.045ZM126.501 37.9119H129.702V47H130.935V37.9119H134.137V36.8182H126.501V37.9119ZM143.949 40C143.571 37.9119 141.901 36.679 139.853 36.679C137.247 36.679 135.358 38.6875 135.358 41.9091C135.358 45.1307 137.247 47.1392 139.853 47.1392C141.901 47.1392 143.571 45.9062 143.949 43.8182H142.716C142.418 45.2301 141.205 45.9858 139.853 45.9858C138.003 45.9858 136.551 44.554 136.551 41.9091C136.551 39.2642 138.003 37.8324 139.853 37.8324C141.205 37.8324 142.418 38.5881 142.716 40H143.949Z" fill="#F2F2F2"/>
<path d="M57.517 23H64.9744C68.8949 23 70.983 20.9545 70.983 18.1761C70.983 15.5938 69.1335 14.0341 67.1477 13.9403V13.7699C68.9631 13.3608 70.3011 12.0739 70.3011 10.0199C70.3011 7.40341 68.358 5.54545 64.5057 5.54545H57.517V23ZM61.2074 19.983V15.3466H64.3011C66.0739 15.3466 67.1733 16.3693 67.1733 17.8097C67.1733 19.1222 66.2784 19.983 64.2159 19.983H61.2074ZM61.2074 12.8494V8.52841H64.0114C65.6477 8.52841 66.5767 9.37216 66.5767 10.6335C66.5767 12.0142 65.4517 12.8494 63.9432 12.8494H61.2074ZM73.3161 23H76.9467V9.90909H73.3161V23ZM75.1399 8.22159C76.2223 8.22159 77.1087 7.39489 77.1087 6.38068C77.1087 5.375 76.2223 4.54829 75.1399 4.54829C74.0661 4.54829 73.1797 5.375 73.1797 6.38068C73.1797 7.39489 74.0661 8.22159 75.1399 8.22159ZM86.8182 9.90909H84.3551V6.77273H80.7244V9.90909H78.9347V12.6364H80.7244V19.4545C80.7074 22.0199 82.4545 23.2898 85.0881 23.179C86.0256 23.1449 86.6903 22.9574 87.0568 22.8381L86.4858 20.1364C86.3068 20.1705 85.9233 20.2557 85.5824 20.2557C84.858 20.2557 84.3551 19.983 84.3551 18.9773V12.6364H86.8182V9.90909ZM94.9574 23.2557C98.4432 23.2557 100.634 21.2102 100.804 18.2017H97.3778C97.1648 19.5994 96.2443 20.3835 95 20.3835C93.304 20.3835 92.2045 18.9602 92.2045 16.4545C92.2045 13.983 93.3125 12.5682 95 12.5682C96.3295 12.5682 97.1818 13.446 97.3778 14.75H100.804C100.651 11.7244 98.358 9.73864 94.9403 9.73864C90.9688 9.73864 88.5142 12.4915 88.5142 16.5057C88.5142 20.4858 90.9261 23.2557 94.9574 23.2557ZM109.043 23.2557C113.015 23.2557 115.487 20.5369 115.487 16.5057C115.487 12.4489 113.015 9.73864 109.043 9.73864C105.072 9.73864 102.6 12.4489 102.6 16.5057C102.6 20.5369 105.072 23.2557 109.043 23.2557ZM109.06 20.4432C107.228 20.4432 106.29 18.7642 106.29 16.4801C106.29 14.196 107.228 12.5085 109.06 12.5085C110.859 12.5085 111.796 14.196 111.796 16.4801C111.796 18.7642 110.859 20.4432 109.06 20.4432ZM117.847 23H121.478V9.90909H117.847V23ZM119.671 8.22159C120.754 8.22159 121.64 7.39489 121.64 6.38068C121.64 5.375 120.754 4.54829 119.671 4.54829C118.597 4.54829 117.711 5.375 117.711 6.38068C117.711 7.39489 118.597 8.22159 119.671 8.22159ZM128.017 15.4318C128.026 13.7443 129.031 12.7557 130.497 12.7557C131.955 12.7557 132.832 13.7102 132.824 15.3125V23H136.455V14.6648C136.455 11.6136 134.665 9.73864 131.938 9.73864C129.994 9.73864 128.588 10.6932 128 12.2188H127.847V9.90909H124.386V23H128.017V15.4318Z" fill="white"/>
<path opacity="0.7" d="M147.148 20H151.858C154.523 20 155.83 18.642 155.83 16.8295C155.83 15.0682 154.58 14.0341 153.341 13.9716V13.858C154.477 13.5909 155.375 12.7955 155.375 11.3807C155.375 9.64773 154.125 8.36364 151.602 8.36364H147.148V20ZM149.256 18.2386V14.8295H151.58C152.881 14.8295 153.688 15.625 153.688 16.6648C153.688 17.5909 153.051 18.2386 151.523 18.2386H149.256ZM149.256 13.3125V10.1023H151.386C152.625 10.1023 153.267 10.7557 153.267 11.6534C153.267 12.6761 152.438 13.3125 151.341 13.3125H149.256ZM157.152 10.1307H160.749V20H162.839V10.1307H166.436V8.36364H157.152V10.1307ZM177.686 12.2898C177.328 9.70455 175.339 8.20455 172.76 8.20455C169.72 8.20455 167.43 10.4205 167.43 14.1818C167.43 17.9375 169.692 20.1591 172.76 20.1591C175.527 20.1591 177.362 18.3693 177.686 16.1477L175.561 16.1364C175.294 17.5 174.18 18.267 172.788 18.267C170.902 18.267 169.55 16.8523 169.55 14.1818C169.55 11.5568 170.891 10.0966 172.794 10.0966C174.209 10.0966 175.317 10.8977 175.561 12.2898H177.686Z" fill="#CFCFCF"/>
<circle cx="20" cy="20" r="20" fill="#C4C4C4"/>
<g clip-path="url(#clip0_209_31)">
<path d="M39.4019 24.8367C36.7298 35.5567 25.8687 42.0732 15.164 39.4009C4.44366 36.7287 -2.0729 25.8681 0.599441 15.1635C3.27163 4.44354 14.1169 -2.07302 24.8373 0.599321C35.5419 3.25588 42.0743 14.1165 39.4019 24.8367Z" fill="url(#paint0_linear_209_31)"/>
<path d="M29.5222 17.5079C29.9128 14.8517 27.8972 13.4142 25.116 12.4611L26.0222 8.85168L23.8347 8.30481L22.9597 11.8204C22.3816 11.6798 21.7878 11.5392 21.1941 11.4142L22.0691 7.88293L19.8816 7.33606L18.991 10.9298C18.5066 10.8204 18.0378 10.7111 17.5847 10.6017V10.5861L14.5535 9.83606L13.9753 12.1798C13.9753 12.1798 15.6003 12.5548 15.5691 12.5704C16.4597 12.7892 16.616 13.3829 16.5847 13.8517L15.5535 17.9611C15.616 17.9767 15.6941 17.9923 15.7878 18.0392C15.7097 18.0236 15.6316 18.0079 15.5535 17.9767L14.116 23.7267C14.0066 23.9923 13.7253 24.3986 13.116 24.2423C13.1316 24.2736 11.5222 23.8517 11.5222 23.8517L10.4285 26.3673L13.2878 27.0861C13.8191 27.2267 14.3347 27.3517 14.8503 27.4923L13.9441 31.1329L16.1316 31.6798L17.0378 28.0704C17.6316 28.2267 18.2253 28.3829 18.7878 28.5236L17.8972 32.1173L20.0847 32.6642L20.991 29.0236C24.741 29.7267 27.5535 29.4454 28.7253 26.0548C29.6785 23.3361 28.6785 21.7579 26.7097 20.7267C28.1628 20.3986 29.241 19.4454 29.5222 17.5079ZM24.5066 24.5392C23.8347 27.2579 19.241 25.7892 17.7566 25.4142L18.9597 20.5861C20.4441 20.9611 25.2253 21.6954 24.5066 24.5392ZM25.1941 17.4611C24.5691 19.9454 20.7566 18.6798 19.5222 18.3673L20.616 13.9923C21.8503 14.3048 25.8347 14.8829 25.1941 17.4611Z" fill="white"/>
</g>
<defs>
<linearGradient id="paint0_linear_209_31" x1="19.9894" y1="-0.00947792" x2="19.9894" y2="39.9961" gradientUnits="userSpaceOnUse">
<stop stop-color="#F9AA4B"/>
<stop offset="1" stop-color="#F7931A"/>
</linearGradient>
<clipPath id="clip0_209_31">
<rect width="40" height="40" fill="white"/>
</clipPath>
</defs>
</svg>
