<svg width="40" height="40" viewBox="0 0 40 40" fill="none" xmlns="http://www.w3.org/2000/svg">
<g id="Icon / Person">
<path id="Vector" d="M25.9876 5.04531C24.4673 3.40391 22.3438 2.5 20.0001 2.5C17.6438 2.5 15.5134 3.39844 14.0001 5.02969C12.4704 6.67891 11.7251 8.92031 11.9001 11.3406C12.247 16.1156 15.8805 20 20.0001 20C24.1196 20 27.747 16.1164 28.0993 11.3422C28.2767 8.94375 27.5267 6.70703 25.9876 5.04531Z" fill="#3671E9"/>
<path id="Vector_2" d="M33.75 37.5H6.24996C5.89001 37.5047 5.53354 37.4291 5.20649 37.2786C4.87944 37.1282 4.59004 36.9068 4.35933 36.6305C3.85152 36.0234 3.64683 35.1945 3.7984 34.3562C4.45777 30.6984 6.51558 27.6258 9.74996 25.4687C12.6234 23.5539 16.2632 22.5 20 22.5C23.7367 22.5 27.3765 23.5547 30.25 25.4687C33.4843 27.625 35.5421 30.6977 36.2015 34.3555C36.3531 35.1937 36.1484 36.0227 35.6406 36.6297C35.41 36.9062 35.1206 37.1277 34.7935 37.2783C34.4665 37.4288 34.11 37.5046 33.75 37.5Z" fill="#3671E9"/>
</g>
</svg>
