<svg width="40" height="40" viewBox="0 0 40 40" fill="none" xmlns="http://www.w3.org/2000/svg">
<g id="Icon / Earth">
<path id="Vector" d="M32.3741 7.6364C30.752 5.99825 28.8222 4.69674 26.6956 3.80665C24.5689 2.91656 22.2874 2.45543 19.982 2.44976C17.6767 2.44409 15.3929 2.89398 13.2619 3.77359C11.1309 4.6532 9.19475 5.94519 7.56459 7.57534C5.93444 9.20549 4.64245 11.1417 3.76284 13.2727C2.88323 15.4036 2.43334 17.6874 2.43902 19.9928C2.44469 22.2982 2.90582 24.5797 3.79591 26.7063C4.686 28.8329 5.9875 30.7627 7.62566 32.3848C9.24776 34.023 11.1776 35.3245 13.3042 36.2146C15.4308 37.1047 17.7123 37.5658 20.0177 37.5715C22.3231 37.5772 24.6069 37.1273 26.7378 36.2477C28.8688 35.3681 30.805 34.0761 32.4352 32.4459C34.0653 30.8158 35.3573 28.8796 36.2369 26.7486C37.1165 24.6176 37.5664 22.3338 37.5607 20.0285C37.5551 17.7231 37.0939 15.4416 36.2038 13.3149C35.3138 11.1883 34.0122 9.25851 32.3741 7.6364ZM4.99988 20.0106C4.99932 18.6831 5.17534 17.3613 5.52331 16.0802C6.09675 17.3145 6.92956 18.3809 7.49597 19.6473C8.228 21.2755 10.1936 20.8239 11.0616 22.2505C11.8319 23.5169 11.0093 25.1184 11.5858 26.4434C12.0046 27.4052 12.9921 27.6153 13.6733 28.3184C14.3694 29.0278 14.3546 29.9997 14.4608 30.9247C14.5807 32.0115 14.7752 33.0888 15.0428 34.1489C15.0428 34.1567 15.0428 34.1653 15.0491 34.1731C9.203 32.12 4.99988 26.5473 4.99988 20.0106ZM19.9999 35.0106C19.1622 35.0104 18.3259 34.9403 17.4999 34.8013C17.5085 34.5895 17.5124 34.3919 17.5335 34.2544C17.7233 33.0122 18.3452 31.7973 19.1842 30.8677C20.0132 29.9505 21.1491 29.3302 21.8491 28.2895C22.535 27.2739 22.7405 25.9067 22.4577 24.72C22.0413 22.9669 19.6592 22.3817 18.3749 21.4309C17.6366 20.8841 16.9796 20.0387 16.01 19.97C15.5632 19.9387 15.1889 20.0348 14.746 19.9208C14.3397 19.8153 14.021 19.5966 13.5882 19.6536C12.7796 19.7598 12.2694 20.6239 11.4007 20.5067C10.5764 20.3966 9.72722 19.4317 9.53972 18.6466C9.29909 17.6372 10.0975 17.3098 10.953 17.22C11.31 17.1825 11.7108 17.1419 12.0538 17.2731C12.5053 17.4403 12.7186 17.8825 13.1241 18.1059C13.8843 18.5231 14.0382 17.8567 13.9218 17.1817C13.7475 16.1708 13.5444 15.7591 14.446 15.063C15.071 14.5833 15.6053 14.2364 15.5053 13.3747C15.446 12.8684 15.1686 12.6395 15.4272 12.1356C15.6233 11.752 16.1616 11.4059 16.5124 11.177C17.4178 10.5864 20.3913 10.6302 19.1764 8.97703C18.8194 8.49187 18.1608 7.62468 17.5358 7.50593C16.7546 7.35828 16.4077 8.23015 15.8632 8.61453C15.3007 9.01218 14.2053 9.46375 13.6421 8.8489C12.8842 8.02156 14.1444 7.75046 14.4233 7.17234C14.5522 6.90281 14.4233 6.52859 14.2061 6.17625C14.4879 6.0575 14.7744 5.94734 15.0655 5.84578C15.248 5.98054 15.4644 6.06171 15.6905 6.08015C16.2132 6.11453 16.7061 5.83171 17.1624 6.18796C17.6686 6.57859 18.0335 7.07234 18.7053 7.19421C19.3553 7.31218 20.0436 6.93328 20.2046 6.26765C20.3022 5.86296 20.2046 5.43562 20.1108 5.01765C23.0327 5.03446 25.8852 5.90951 28.3139 7.53406C28.1577 7.47468 27.971 7.48171 27.7405 7.58875C27.2663 7.80906 26.5944 8.37 26.5389 8.92625C26.4757 9.5575 27.4069 9.64656 27.8491 9.64656C28.5132 9.64656 29.1858 9.34968 28.9717 8.5825C28.8788 8.24968 28.7522 7.90359 28.5483 7.69422C29.0385 8.03434 29.508 8.40321 29.9546 8.7989C29.9475 8.80593 29.9405 8.81218 29.9335 8.82C29.4835 9.28875 28.9608 9.65984 28.653 10.2302C28.4358 10.6317 28.1913 10.8223 27.7514 10.9262C27.5092 10.9833 27.2327 11.0044 27.0296 11.1669C26.4639 11.6122 26.7858 12.6825 27.3217 13.0036C27.9991 13.4091 29.0038 13.2184 29.5147 12.6395C29.9139 12.1864 30.1491 11.3997 30.8671 11.4005C31.1831 11.3998 31.4868 11.5236 31.7124 11.745C32.0092 12.0528 31.9507 12.3403 32.0139 12.7247C32.1257 13.4075 32.728 13.0372 33.0944 12.6927C33.3615 13.168 33.6025 13.6575 33.8163 14.1591C33.4132 14.7395 33.0928 15.3723 32.1233 14.6958C31.5428 14.2903 31.1858 13.702 30.4569 13.5192C29.8202 13.363 29.1678 13.5255 28.5389 13.6341C27.8241 13.7583 26.9764 13.813 26.4342 14.3544C25.91 14.8762 25.6327 15.5747 25.0749 16.0989C23.996 17.1145 23.5405 18.2231 24.2389 19.6591C24.9108 21.0395 26.3163 21.7887 27.8327 21.6903C29.3225 21.5911 30.8702 20.727 30.8272 22.8919C30.8116 23.6583 30.9717 24.1888 31.2069 24.9005C31.4249 25.5567 31.41 26.1927 31.46 26.87C31.5076 27.6632 31.6316 28.4499 31.8303 29.2192C30.43 31.0222 28.6362 32.4812 26.5858 33.485C24.5354 34.4887 22.2827 35.0105 19.9999 35.0106Z" fill="#3671E9"/>
</g>
</svg>
