<svg width="518.000000" height="47.000000" viewBox="0 0 518 47" fill="none" xmlns="http://www.w3.org/2000/svg" xmlns:xlink="http://www.w3.org/1999/xlink">
	<desc>
			Created with Pixso.
	</desc>
	<defs>
		<clipPath id="clip24_76">
			<rect id="ant-design:caret-down-outlined" width="9.999998" height="10.000000" transform="translate(305.000000 19.000000)" fill="white" fill-opacity="0"/>
		</clipPath>
	</defs>
	<path id="Ethereum" d="M57.4102 44L64.5234 44L64.5234 42.75L58.8164 42.75L58.8164 38.7969L64.0664 38.7969L64.0664 37.5469L58.8164 37.5469L58.8164 33.6133L64.4336 33.6133L64.4336 32.3633L57.4102 32.3633L57.4102 44ZM70.7516 35.2734L68.8883 35.2734L68.8883 33.1836L67.5446 33.1836L67.5446 35.2734L66.2282 35.2734L66.2282 36.4102L67.5446 36.4102L67.5446 41.8633C67.5446 43.3867 68.7751 44.1133 69.9118 44.1133C70.4118 44.1133 70.7282 44.0234 70.9118 43.9531L70.6383 42.75C70.5251 42.7734 70.3415 42.8164 70.0446 42.8164C69.4547 42.8164 68.8883 42.6367 68.8883 41.5L68.8883 36.4102L70.7516 36.4102L70.7516 35.2734ZM74.4546 38.75C74.4546 37.2266 75.4272 36.3633 76.7515 36.3633C78.0132 36.3633 78.7749 37.1602 78.7749 38.5469L78.7749 44L80.1147 44L80.1147 38.4531C80.1147 36.2109 78.9233 35.1602 77.1382 35.1602C75.7632 35.1602 74.978 35.7344 74.5718 36.6367L74.4546 36.6367L74.4546 32.3633L73.1147 32.3633L73.1147 44L74.4546 44L74.4546 38.75ZM86.3895 44.1836C88.1629 44.1836 89.4559 43.2969 89.866 41.9766L88.5691 41.6133C88.2293 42.5234 87.4402 42.9766 86.3895 42.9766C84.8152 42.9766 83.7293 41.9609 83.6668 40.0898L90.0027 40.0898L90.0027 39.5234C90.0027 36.2734 88.0691 35.1602 86.2527 35.1602C83.8895 35.1602 82.3191 37.0234 82.3191 39.7031C82.3191 42.3867 83.866 44.1836 86.3895 44.1836ZM83.6668 38.9336C83.7566 37.5742 84.7176 36.3633 86.2527 36.3633C87.7059 36.3633 88.6395 37.4531 88.6395 38.9336L83.6668 38.9336ZM92.2075 44L93.5473 44L93.5473 38.4766C93.5473 37.2969 94.4809 36.4336 95.7543 36.4336C96.1098 36.4336 96.4809 36.5 96.5708 36.5234L96.5708 35.1602C96.4184 35.1484 96.0668 35.1367 95.8676 35.1367C94.8208 35.1367 93.9145 35.7266 93.5942 36.5898L93.5043 36.5898L93.5043 35.2734L92.2075 35.2734L92.2075 44ZM101.709 44.1836C103.483 44.1836 104.776 43.2969 105.186 41.9766L103.889 41.6133C103.549 42.5234 102.76 42.9766 101.709 42.9766C100.135 42.9766 99.0493 41.9609 98.9868 40.0898L105.323 40.0898L105.323 39.5234C105.323 36.2734 103.389 35.1602 101.573 35.1602C99.2094 35.1602 97.6391 37.0234 97.6391 39.7031C97.6391 42.3867 99.186 44.1836 101.709 44.1836ZM98.9868 38.9336C99.0766 37.5742 100.038 36.3633 101.573 36.3633C103.026 36.3633 103.959 37.4531 103.959 38.9336L98.9868 38.9336ZM113.027 40.4336C113.027 42.0664 111.777 42.8164 110.777 42.8164C109.664 42.8164 108.867 42 108.867 40.7266L108.867 35.2734L107.527 35.2734L107.527 40.8164C107.527 43.0469 108.711 44.1133 110.348 44.1133C111.664 44.1133 112.527 43.4102 112.938 42.5234L113.027 42.5234L113.027 44L114.367 44L114.367 35.2734L113.027 35.2734L113.027 40.4336ZM116.983 44L118.323 44L118.323 38.5469C118.323 37.2656 119.256 36.3633 120.303 36.3633C121.319 36.3633 122.03 37.0273 122.03 38.0234L122.03 44L123.393 44L123.393 38.3164C123.393 37.1914 124.096 36.3633 125.323 36.3633C126.28 36.3633 127.096 36.8711 127.096 38.1602L127.096 44L128.44 44L128.44 38.1602C128.44 36.1094 127.334 35.1602 125.78 35.1602C124.53 35.1602 123.616 35.7344 123.167 36.6367L123.073 36.6367C122.643 35.7031 121.881 35.1602 120.733 35.1602C119.596 35.1602 118.756 35.7031 118.393 36.6367L118.28 36.6367L118.28 35.2734L116.983 35.2734L116.983 44Z" fill="#F2F2F2" fill-opacity="1.000000" fill-rule="evenodd"/>
	<path id="ETH" d="M57.2646 19L67.0938 19L67.0938 16.4658L60.3408 16.4658L60.3408 12.9893L66.5615 12.9893L66.5615 10.4551L60.3408 10.4551L60.3408 6.98828L67.0645 6.98828L67.0645 4.4541L57.2646 4.4541L57.2646 19ZM68.9594 6.98828L73.4126 6.98828L73.4126 19L76.4545 19L76.4545 6.98828L80.9077 6.98828L80.9077 4.4541L68.9594 4.4541L68.9594 6.98828ZM82.8825 19L85.9587 19L85.9587 12.9893L92.199 12.9893L92.199 19L95.2702 19L95.2702 4.4541L92.199 4.4541L92.199 10.4551L85.9587 10.4551L85.9587 4.4541L82.8825 4.4541L82.8825 19Z" fill="#FFFFFF" fill-opacity="1.000000" fill-rule="evenodd"/>
	<path id="Shape" d="M39.8916 24C39.8916 34.9875 30.9844 43.8947 19.9971 43.8947C9.00977 43.8947 0.102539 34.9875 0.102539 24C0.102539 13.0125 9.00977 4.10547 19.9971 4.10547C30.9844 4.10547 39.8916 13.0125 39.8916 24Z" fill="#6374C3" fill-opacity="1.000000" fill-rule="nonzero"/>
	<path id="Shape" d="M19.9336 14.769L19.8105 15.1867L19.8105 27.3064L19.9336 27.4291L25.5591 24.1037L19.9336 14.769Z" fill="#FFFFFF" fill-opacity="1.000000" fill-rule="nonzero"/>
	<path id="Shape" d="M19.9336 14.769L14.3076 24.1037L19.9336 27.4291L19.9336 21.5466L19.9336 14.769Z" fill="#FFFFFF" fill-opacity="1.000000" fill-rule="nonzero"/>
	<path id="Shape" d="M19.9326 29.2593L19.8633 29.3437L19.8633 33.661L19.9326 33.8632L25.5615 25.9355L19.9326 29.2593Z" fill="#FFFFFF" fill-opacity="1.000000" fill-rule="nonzero"/>
	<path id="Shape" d="M19.9336 33.8633L19.9336 29.2593L14.3076 25.9355L19.9336 33.8633Z" fill="#FFFFFF" fill-opacity="1.000000" fill-rule="nonzero"/>
	<path id="Shape" d="M19.9336 27.4303L25.5596 24.1049L19.9336 21.5479L19.9336 27.4303Z" fill="#FFFFFF" fill-opacity="1.000000" fill-rule="nonzero"/>
	<path id="Shape" d="M14.3076 24.1049L19.9336 27.4303L19.9336 21.5479L14.3076 24.1049Z" fill="#FFFFFF" fill-opacity="1.000000" fill-rule="nonzero"/>
	<path id="$156.83" d="M185.637 31.4531L186.566 31.4531L186.566 30.1875C188.953 30.0234 190.297 28.6133 190.297 26.8398C190.297 24.6602 188.227 23.9531 187.023 23.6367L186.566 23.5117L186.566 19.4727C187.773 19.5898 188.648 20.2383 188.773 21.2734L190.137 21.2734C190.078 19.6133 188.625 18.3516 186.566 18.2148L186.566 16.9102L185.637 16.9102L185.637 18.2344C183.688 18.4336 182.227 19.6719 182.227 21.4531C182.227 23.0234 183.363 23.9531 185.184 24.4766L185.637 24.6094L185.637 28.9102C184.441 28.7852 183.465 28.1719 183.363 27L181.91 27C182.039 28.7891 183.402 30.0391 185.637 30.1875L185.637 31.4531ZM186.566 28.9102L186.566 24.875L186.613 24.8867C187.84 25.2266 188.934 25.6602 188.934 26.8164C188.934 27.9609 187.941 28.7539 186.566 28.9102ZM185.637 23.2617C184.773 23.0156 183.59 22.5391 183.59 21.3867C183.59 20.4023 184.387 19.6523 185.637 19.4883L185.637 23.2617ZM196.501 18.3633L195.091 18.3633L192.181 20.2969L192.181 21.7266L195.021 19.8398L195.091 19.8398L195.091 30L196.501 30L196.501 18.3633ZM203.476 30.1602C205.695 30.1602 207.32 28.5234 207.32 26.2969C207.32 24.0391 205.75 22.3867 203.613 22.3867C202.828 22.3867 202.07 22.6641 201.589 23.0469L201.523 23.0469L201.933 19.6133L206.797 19.6133L206.797 18.3633L200.75 18.3633L200.047 24.0898L201.363 24.25C201.847 23.9023 202.672 23.6523 203.386 23.6602C204.871 23.6719 205.953 24.7969 205.953 26.3164C205.953 27.8125 204.91 28.9102 203.476 28.9102C202.285 28.9102 201.336 28.1406 201.226 27.0898L199.863 27.0898C199.949 28.8633 201.476 30.1602 203.476 30.1602ZM213.43 30.1602C215.786 30.1875 217.317 28.4141 217.317 26.25C217.317 24 215.653 22.3867 213.661 22.3867C212.461 22.3867 211.43 22.9727 210.797 23.9336L210.703 23.9336C210.711 21.0977 211.813 19.4531 213.614 19.4531C214.84 19.4531 215.578 20.2266 215.84 21.2734L217.227 21.2734C216.942 19.4648 215.567 18.2031 213.614 18.2031C210.993 18.2031 209.387 20.5234 209.387 24.6367C209.387 28.9375 211.524 30.1367 213.43 30.1602ZM213.43 28.9102C211.973 28.9102 210.903 27.6641 210.911 26.2734C210.914 24.8789 212.036 23.6367 213.477 23.6367C214.903 23.6367 215.953 24.8086 215.953 26.25C215.953 27.7266 214.86 28.9102 213.43 28.9102ZM219.999 30.0898C220.561 30.0898 221.022 29.6289 221.022 29.0664C221.022 28.5039 220.561 28.0469 219.999 28.0469C219.436 28.0469 218.979 28.5039 218.979 29.0664C218.979 29.6289 219.436 30.0898 219.999 30.0898ZM226.775 30.1602C229.095 30.1602 230.716 28.8008 230.728 26.9102C230.716 25.4375 229.732 24.1875 228.478 23.9531L228.478 23.8867C229.567 23.6016 230.282 22.5352 230.294 21.2969C230.282 19.5234 228.794 18.2031 226.775 18.2031C224.728 18.2031 223.239 19.5234 223.251 21.2969C223.239 22.5352 223.954 23.6016 225.067 23.8867L225.067 23.9531C223.79 24.1875 222.806 25.4375 222.817 26.9102C222.806 28.8008 224.427 30.1602 226.775 30.1602ZM226.775 28.9102C225.177 28.9102 224.192 28.0898 224.204 26.8398C224.192 25.5273 225.278 24.5898 226.775 24.5898C228.243 24.5898 229.329 25.5273 229.341 26.8398C229.329 28.0898 228.345 28.9102 226.775 28.9102ZM226.775 23.3867C225.501 23.3867 224.603 22.5898 224.614 21.3867C224.603 20.2031 225.466 19.4336 226.775 19.4336C228.056 19.4336 228.919 20.2031 228.931 21.3867C228.919 22.5898 228.025 23.3867 226.775 23.3867ZM236.841 30.1602C239.095 30.1602 240.771 28.7461 240.771 26.8398C240.771 25.3633 239.896 24.2891 238.431 24.0469L238.431 23.9531C239.607 23.5977 240.341 22.6289 240.341 21.3164C240.341 19.6719 239.04 18.2031 236.888 18.2031C234.876 18.2031 233.205 19.4414 233.138 21.2734L234.501 21.2734C234.552 20.1133 235.654 19.4336 236.865 19.4336C238.146 19.4336 238.978 20.2109 238.978 21.3867C238.978 22.6133 238.017 23.4102 236.638 23.4102L235.705 23.4102L235.705 24.6602L236.638 24.6602C238.404 24.6602 239.388 25.5586 239.388 26.8398C239.388 28.0742 238.314 28.9102 236.818 28.9102C235.47 28.9102 234.404 28.2148 234.318 27.0898L232.888 27.0898C232.97 28.9219 234.583 30.1602 236.841 30.1602Z" fill="#F2F2F2" fill-opacity="1.000000" fill-rule="evenodd"/>
	<g opacity="0.100000">
		<ellipse id="Ellipse 45" cx="310.000000" cy="24.000000" rx="7.999998" ry="8.000000" fill="#FF7676" fill-opacity="1.000000"/>
	</g>
	<rect id="ant-design:caret-down-outlined" width="9.999998" height="10.000000" transform="translate(305.000000 19.000000)" fill="#FFFFFF" fill-opacity="0"/>
	<g clip-path="url(#clip24_76)">
		<path id="Vector" d="M313.207 21.9297L306.792 21.9297C306.6 21.9297 306.493 22.1328 306.612 22.2715L309.819 25.9902C309.911 26.0967 310.087 26.0967 310.18 25.9902L313.387 22.2715C313.506 22.1328 313.399 21.9297 313.207 21.9297Z" fill="#FF7676" fill-opacity="1.000000" fill-rule="nonzero"/>
	</g>
	<path id="-0.9%" d="M332.227 23.5586L327.137 23.5586L327.137 24.8086L332.227 24.8086L332.227 23.5586ZM338.364 30.1602C340.93 30.1602 342.411 27.9844 342.411 24.1836C342.411 20.4102 340.911 18.2031 338.364 18.2031C335.817 18.2031 334.317 20.4102 334.317 24.1836C334.317 27.9844 335.797 30.1602 338.364 30.1602ZM338.364 28.9102C336.672 28.9102 335.68 27.2109 335.68 24.1836C335.68 21.1602 336.68 19.4336 338.364 19.4336C340.047 19.4336 341.047 21.1602 341.047 24.1836C341.047 27.2109 340.055 28.9102 338.364 28.9102ZM345.158 30.0898C345.72 30.0898 346.181 29.6289 346.181 29.0664C346.181 28.5039 345.72 28.0469 345.158 28.0469C344.595 28.0469 344.138 28.5039 344.138 29.0664C344.138 29.6289 344.595 30.0898 345.158 30.0898ZM352.16 18.2031C349.797 18.1758 348.273 19.9531 348.273 22.0898C348.273 24.3398 349.934 25.9531 351.934 25.9531C353.137 25.9531 354.16 25.3633 354.797 24.4102L354.887 24.4102C354.887 27.2734 353.773 28.9102 351.977 28.9102C350.75 28.9102 350 28.1367 349.75 27.0664L348.363 27.0664C348.637 28.9102 350.023 30.1602 351.977 30.1602C354.59 30.1602 356.203 27.8398 356.203 23.7031C356.203 19.4336 354.066 18.2266 352.16 18.2031ZM352.16 19.4531C353.613 19.4531 354.684 20.7031 354.684 22.0664C354.684 23.4531 353.547 24.7031 352.113 24.7031C350.684 24.7031 349.637 23.5469 349.637 22.0898C349.637 20.6367 350.727 19.4531 352.16 19.4531ZM364.364 27.8164C364.364 29.0898 365.161 30.1602 366.637 30.1602C368.091 30.1602 368.887 29.0898 368.887 27.8164L368.887 27.2031C368.887 25.9336 368.114 24.8633 366.637 24.8633C365.18 24.8633 364.364 25.9336 364.364 27.2031L364.364 27.8164ZM358.567 21.1602C358.567 22.4336 359.364 23.5 360.841 23.5C362.294 23.5 363.091 22.4336 363.091 21.1602L363.091 20.5469C363.091 19.2734 362.317 18.2031 360.841 18.2031C359.387 18.2031 358.567 19.2734 358.567 20.5469L358.567 21.1602ZM359.001 30L360.294 30L368.294 18.3633L367.001 18.3633L359.001 30ZM365.524 27.2031C365.524 26.5 365.841 25.8398 366.637 25.8398C367.454 25.8398 367.727 26.5 367.727 27.2031L367.727 27.8164C367.727 28.5234 367.43 29.1836 366.637 29.1836C365.817 29.1836 365.524 28.5234 365.524 27.8164L365.524 27.2031ZM359.727 20.5469C359.727 19.8398 360.044 19.1836 360.841 19.1836C361.661 19.1836 361.93 19.8398 361.93 20.5469L361.93 21.1602C361.93 21.8633 361.637 22.5234 360.841 22.5234C360.024 22.5234 359.727 21.8633 359.727 21.1602L359.727 20.5469Z" fill="#FF7676" fill-opacity="1.000000" fill-rule="evenodd"/>
	<path id="$1812350" d="M447.637 31.4531L448.566 31.4531L448.566 30.1875C450.953 30.0234 452.297 28.6133 452.297 26.8398C452.297 24.6602 450.227 23.9531 449.023 23.6367L448.566 23.5117L448.566 19.4727C449.773 19.5898 450.648 20.2383 450.773 21.2734L452.137 21.2734C452.078 19.6133 450.625 18.3516 448.566 18.2148L448.566 16.9102L447.637 16.9102L447.637 18.2344C445.688 18.4336 444.227 19.6719 444.227 21.4531C444.227 23.0234 445.363 23.9531 447.184 24.4766L447.637 24.6094L447.637 28.9102C446.441 28.7852 445.465 28.1719 445.363 27L443.91 27C444.039 28.7891 445.402 30.0391 447.637 30.1875L447.637 31.4531ZM448.566 28.9102L448.566 24.875L448.613 24.8867C449.84 25.2266 450.934 25.6602 450.934 26.8164C450.934 27.9609 449.941 28.7539 448.566 28.9102ZM447.637 23.2617C446.773 23.0156 445.59 22.5391 445.59 21.3867C445.59 20.4023 446.387 19.6523 447.637 19.4883L447.637 23.2617ZM458.501 18.3633L457.091 18.3633L454.181 20.2969L454.181 21.7266L457.021 19.8398L457.091 19.8398L457.091 30L458.501 30L458.501 18.3633ZM465.57 30.1602C467.89 30.1602 469.511 28.8008 469.523 26.9102C469.511 25.4375 468.527 24.1875 467.273 23.9531L467.273 23.8867C468.363 23.6016 469.078 22.5352 469.089 21.2969C469.078 19.5234 467.589 18.2031 465.57 18.2031C463.523 18.2031 462.035 19.5234 462.047 21.2969C462.035 22.5352 462.75 23.6016 463.863 23.8867L463.863 23.9531C462.586 24.1875 461.601 25.4375 461.613 26.9102C461.601 28.8008 463.222 30.1602 465.57 30.1602ZM465.57 28.9102C463.972 28.9102 462.988 28.0898 463 26.8398C462.988 25.5273 464.074 24.5898 465.57 24.5898C467.039 24.5898 468.125 25.5273 468.136 26.8398C468.125 28.0898 467.14 28.9102 465.57 28.9102ZM465.57 23.3867C464.297 23.3867 463.398 22.5898 463.41 21.3867C463.398 20.2031 464.261 19.4336 465.57 19.4336C466.851 19.4336 467.714 20.2031 467.726 21.3867C467.714 22.5898 466.82 23.3867 465.57 23.3867ZM475.797 18.3633L474.387 18.3633L471.477 20.2969L471.477 21.7266L474.316 19.8398L474.387 19.8398L474.387 30L475.797 30L475.797 18.3633ZM479.135 30L486.479 30L486.479 28.75L481.069 28.75L481.069 28.6602L483.682 25.8633C485.682 23.7227 486.272 22.7227 486.272 21.4336C486.272 19.6367 484.819 18.2031 482.772 18.2031C480.733 18.2031 479.182 19.5898 479.182 21.6367L480.522 21.6367C480.522 20.3125 481.381 19.4336 482.729 19.4336C483.99 19.4336 484.955 20.2031 484.955 21.4336C484.955 22.5039 484.322 23.3008 482.979 24.7734L479.135 28.9766L479.135 30ZM492.75 30.1602C495.004 30.1602 496.68 28.7461 496.68 26.8398C496.68 25.3633 495.805 24.2891 494.34 24.0469L494.34 23.9531C495.516 23.5977 496.25 22.6289 496.25 21.3164C496.25 19.6719 494.95 18.2031 492.797 18.2031C490.786 18.2031 489.114 19.4414 489.047 21.2734L490.411 21.2734C490.461 20.1133 491.563 19.4336 492.774 19.4336C494.055 19.4336 494.887 20.2109 494.887 21.3867C494.887 22.6133 493.926 23.4102 492.547 23.4102L491.614 23.4102L491.614 24.6602L492.547 24.6602C494.313 24.6602 495.297 25.5586 495.297 26.8398C495.297 28.0742 494.223 28.9102 492.727 28.9102C491.379 28.9102 490.313 28.2148 490.227 27.0898L488.797 27.0898C488.879 28.9219 490.493 30.1602 492.75 30.1602ZM502.635 30.1602C504.854 30.1602 506.479 28.5234 506.479 26.2969C506.479 24.0391 504.909 22.3867 502.772 22.3867C501.987 22.3867 501.229 22.6641 500.749 23.0469L500.682 23.0469L501.092 19.6133L505.956 19.6133L505.956 18.3633L499.909 18.3633L499.206 24.0898L500.522 24.25C501.006 23.9023 501.831 23.6523 502.545 23.6602C504.03 23.6719 505.112 24.7969 505.112 26.3164C505.112 27.8125 504.069 28.9102 502.635 28.9102C501.444 28.9102 500.495 28.1406 500.385 27.0898L499.022 27.0898C499.108 28.8633 500.635 30.1602 502.635 30.1602ZM512.523 30.1602C515.089 30.1602 516.57 27.9844 516.57 24.1836C516.57 20.4102 515.07 18.2031 512.523 18.2031C509.976 18.2031 508.476 20.4102 508.476 24.1836C508.476 27.9844 509.956 30.1602 512.523 30.1602ZM512.523 28.9102C510.831 28.9102 509.839 27.2109 509.839 24.1836C509.839 21.1602 510.839 19.4336 512.523 19.4336C514.206 19.4336 515.206 21.1602 515.206 24.1836C515.206 27.2109 514.214 28.9102 512.523 28.9102Z" fill="#F2F2F2" fill-opacity="1.000000" fill-rule="evenodd"/>
</svg>
