<svg width="32" height="32" viewBox="0 0 32 32" fill="none" xmlns="http://www.w3.org/2000/svg">
<path d="M16 32C24.8366 32 32 24.8366 32 16C32 7.16344 24.8366 0 16 0C7.16344 0 0 7.16344 0 16C0 24.8366 7.16344 32 16 32Z" fill="white" fill-opacity="0.1"/>
<path d="M15.0738 22.4369C11.9299 21.9765 9.5171 19.2662 9.5171 15.9912C9.5171 12.7162 11.9299 10.0059 15.0738 9.54567V6.15381C10.0684 6.63257 6.15381 10.8541 6.15381 15.9912C6.15381 21.1283 10.0684 25.3495 15.0738 25.8285V22.4369Z" fill="white"/>
<path d="M21.5986 9.6001L21.5112 9.89697V18.5115L21.5986 18.5987L25.5974 16.235L21.5986 9.6001Z" fill="white"/>
<path d="M21.5989 9.6001L17.6001 16.235L21.5989 18.5987V14.4175V9.6001Z" fill="white"/>
<path d="M21.599 19.8996L21.5498 19.9596V23.0283L21.599 23.172L25.6002 17.5371L21.599 19.8996Z" fill="white"/>
<path d="M21.5989 23.1721V19.8996L17.6001 17.5371L21.5989 23.1721Z" fill="white"/>
<path d="M21.5986 18.5987L25.5973 16.235L21.5986 14.4175V18.5987Z" fill="white"/>
<path d="M17.6001 16.235L21.5988 18.5987V14.4175L17.6001 16.235Z" fill="white"/>
</svg>
