<svg width="770.000000" height="334.000000" viewBox="0 0 770 334" fill="none" xmlns="http://www.w3.org/2000/svg" xmlns:xlink="http://www.w3.org/1999/xlink">
    <desc>
        Created with Pixso.
    </desc>
    <defs>
        <filter id="filter_24_33_dd" x="152.000000" y="0.000000" width="610.000000" height="334.000000" filterUnits="userSpaceOnUse" color-interpolation-filters="sRGB">
            <feFlood flood-opacity="0" result="BackgroundImageFix" />
            <feGaussianBlur in="BackgroundImage" stdDeviation="1.33333" />
            <feComposite in2="SourceAlpha" operator="in" result="effect_backgroundBlur_1" />
            <feBlend mode="normal" in="SourceGraphic" in2="effect_backgroundBlur_1" result="shape" />
        </filter>
        <clipPath id="clip24_45">
            <rect id="logos:bitcoin" width="40.000000" height="40.000000" transform="translate(192.000000 76.000000)" fill="white" fill-opacity="0" />
        </clipPath>
        <clipPath id="clip24_52">
            <rect id="ant-design:caret-up-outlined" width="10.000000" height="10.000000" transform="translate(497.000000 92.000000)" fill="white" fill-opacity="0" />
        </clipPath>
        <filter id="filter_24_56_dd" x="0.000000" y="84.000000" width="770.000000" height="239.000000" filterUnits="userSpaceOnUse" color-interpolation-filters="sRGB">
            <feFlood flood-opacity="0" result="BackgroundImageFix" />
            <feColorMatrix in="SourceAlpha" type="matrix" values="0 0 0 0 0 0 0 0 0 0 0 0 0 0 0 0 0 0 127 0" result="hardAlpha" />
            <feOffset dx="0" dy="20" />
            <feGaussianBlur stdDeviation="26.6667" />
            <feComposite in2="hardAlpha" operator="out" k2="-1" k3="1" />
            <feColorMatrix type="matrix" values="0 0 0 0 0.21176 0 0 0 0 0.44314 0 0 0 0 0.91373 0 0 0 0.1 0" />
            <feBlend mode="normal" in2="BackgroundImageFix" result="effect_dropShadow_1" />
            <feBlend mode="normal" in="SourceGraphic" in2="effect_dropShadow_1" result="shape" />
        </filter>
        <clipPath id="clip24_76">
            <rect id="ant-design:caret-down-outlined" width="10.000000" height="10.000000" transform="translate(425.000000 179.000000)" fill="white" fill-opacity="0" />
        </clipPath>
        <clipPath id="clip24_85">
            <rect id="ant-design:caret-up-outlined" width="10.000000" height="10.000000" transform="translate(497.000000 266.000488)" fill="white" fill-opacity="0" />
        </clipPath>
        <linearGradient id="paint_linear_24_46_0" x1="211.989197" y1="75.990395" x2="211.989197" y2="115.995956" gradientUnits="userSpaceOnUse">
            <stop stop-color="#F9AA4B" />
            <stop offset="1.000000" stop-color="#F7931A" />
        </linearGradient>
    </defs>
    <g filter="url(#filter_24_33_dd)">
        <rect id="Base" x="152.000000" rx="16.000000" width="610.000000" height="334.000000" fill="#35068C" fill-opacity="1.000000" />
    </g>
    <path id="Price" d="M374.005 54L375.847 54L375.847 50.5581L377.799 50.5581C380.15 50.5581 381.412 49.1465 381.412 47.188C381.412 45.2466 380.164 43.8179 377.823 43.8179L374.005 43.8179L374.005 54ZM375.847 49.0439L375.847 45.3594L377.539 45.3594C378.92 45.3594 379.532 46.1045 379.532 47.188C379.532 48.2715 378.92 49.0439 377.549 49.0439L375.847 49.0439ZM382.935 54L384.733 54L384.733 49.5122C384.733 48.5415 385.464 47.8545 386.452 47.8545C386.756 47.8545 387.135 47.9092 387.289 47.9604L387.289 46.3027C387.125 46.2754 386.842 46.2549 386.643 46.2549C385.768 46.2549 385.037 46.7505 384.757 47.6357L384.678 47.6357L384.678 46.3643L382.935 46.3643L382.935 54ZM388.488 54L390.286 54L390.286 46.3643L388.488 46.3643L388.488 54ZM389.39 45.2808C389.965 45.2808 390.429 44.8433 390.429 44.3066C390.429 43.7632 389.965 43.3257 389.39 43.3257C388.816 43.3257 388.348 43.7632 388.348 44.3066C388.348 44.8433 388.816 45.2808 389.39 45.2808ZM395.466 54.1504C397.387 54.1504 398.607 53.0122 398.737 51.3887L397.018 51.3887C396.864 52.209 396.273 52.6841 395.48 52.6841C394.359 52.6841 393.631 51.7441 393.631 50.1821C393.631 48.6406 394.373 47.7144 395.48 47.7144C396.348 47.7144 396.878 48.2715 397.018 49.0098L398.737 49.0098C398.614 47.3521 397.322 46.2651 395.456 46.2651C393.221 46.2651 391.809 47.8784 391.809 50.2129C391.809 52.5234 393.183 54.1504 395.466 54.1504ZM403.601 54.1504C405.379 54.1504 406.602 53.2788 406.92 51.9526L405.242 51.7612C404.996 52.4106 404.401 52.7456 403.625 52.7456C402.463 52.7456 401.691 51.98 401.677 50.6743L406.995 50.6743L406.995 50.1206C406.995 47.4409 405.386 46.2651 403.506 46.2651C401.318 46.2651 399.893 47.8716 399.893 50.2266C399.893 52.6226 401.298 54.1504 403.601 54.1504ZM401.68 49.4609C401.735 48.4868 402.456 47.6665 403.53 47.6665C404.565 47.6665 405.259 48.4219 405.269 49.4609L401.68 49.4609Z" fill="#FFFFFF" fill-opacity="1.000000" fill-rule="evenodd" />
    <path id="Change" d="M503.721 47.2529C503.406 44.9902 501.667 43.6777 499.411 43.6777C496.748 43.6777 494.745 45.6191 494.745 48.9106C494.745 52.1953 496.724 54.1401 499.411 54.1401C501.831 54.1401 503.437 52.5747 503.721 50.6299L501.861 50.6196C501.625 51.8125 500.651 52.4824 499.435 52.4824C497.784 52.4824 496.601 51.2451 496.601 48.9106C496.601 46.6138 497.773 45.3354 499.438 45.3354C500.675 45.3354 501.646 46.0361 501.861 47.2529L503.721 47.2529ZM507.135 49.5259C507.135 48.4219 507.822 47.7861 508.786 47.7861C509.729 47.7861 510.286 48.3877 510.286 49.4165L510.286 54L512.087 54L512.087 49.1362C512.087 47.2939 511.041 46.2651 509.455 46.2651C508.283 46.2651 507.538 46.7949 507.186 47.6597L507.094 47.6597L507.094 43.8179L505.337 43.8179L505.337 54L507.135 54L507.135 49.5259ZM516.112 54.1538C517.312 54.1538 518.026 53.5933 518.354 52.9507L518.416 52.9507L518.416 54L520.145 54L520.145 48.8901C520.145 46.8701 518.501 46.2651 517.042 46.2651C515.439 46.2651 514.205 46.9795 513.808 48.3706L515.487 48.6099C515.668 48.0903 516.174 47.6426 517.052 47.6426C517.889 47.6426 518.347 48.0698 518.347 48.8184L518.347 48.8491C518.347 49.3652 517.804 49.3926 516.457 49.5361C514.974 49.6934 513.559 50.1377 513.559 51.8569C513.559 53.3574 514.656 54.1538 516.112 54.1538ZM516.58 52.8311C515.832 52.8311 515.292 52.4893 515.292 51.8262C515.292 51.1357 515.893 50.8486 516.7 50.7324C517.172 50.6675 518.118 50.5513 518.351 50.3599L518.351 51.2622C518.351 52.1099 517.664 52.8311 516.58 52.8311ZM523.76 49.5259C523.76 48.4219 524.426 47.7861 525.376 47.7861C526.306 47.7861 526.863 48.3979 526.863 49.4165L526.863 54L528.661 54L528.661 49.1362C528.668 47.3076 527.622 46.2651 526.046 46.2651C524.905 46.2651 524.119 46.812 523.77 47.6597L523.681 47.6597L523.681 46.3643L521.962 46.3643L521.962 54L523.76 54L523.76 49.5259ZM533.817 57.0215C535.881 57.0215 537.402 56.0781 537.402 54.123L537.402 46.3643L535.628 46.3643L535.628 47.6255L535.529 47.6255C535.256 47.0752 534.682 46.2651 533.335 46.2651C531.571 46.2651 530.184 47.646 530.184 50.1582C530.184 52.6465 531.571 53.8906 533.331 53.8906C534.637 53.8906 535.249 53.1899 535.529 52.6294L535.618 52.6294L535.618 54.0752C535.618 55.1997 534.873 55.6611 533.848 55.6611C532.764 55.6611 532.286 55.1484 532.067 54.7007L530.447 55.0938C530.775 56.1636 531.872 57.0215 533.817 57.0215ZM533.834 52.479C532.644 52.479 532.019 51.5527 532.019 50.1479C532.019 48.7603 532.634 47.7417 533.834 47.7417C534.989 47.7417 535.628 48.6987 535.628 50.1479C535.628 51.604 534.982 52.479 533.834 52.479ZM542.633 54.1504C544.411 54.1504 545.634 53.2788 545.952 51.9526L544.274 51.7612C544.028 52.4106 543.433 52.7456 542.657 52.7456C541.495 52.7456 540.723 51.98 540.709 50.6743L546.027 50.6743L546.027 50.1206C546.027 47.4409 544.418 46.2651 542.538 46.2651C540.35 46.2651 538.925 47.8716 538.925 50.2266C538.925 52.6226 540.33 54.1504 542.633 54.1504ZM540.712 49.4609C540.767 48.4868 541.488 47.6665 542.562 47.6665C543.597 47.6665 544.291 48.4219 544.301 49.4609L540.712 49.4609Z" fill="#FFFFFF" fill-opacity="1.000000" fill-rule="evenodd" />
    <path id="Volume (24h)" d="M637.365 43.8179L635.342 43.8179L638.927 54L641.204 54L644.792 43.8179L642.766 43.8179L640.12 51.833L640.018 51.833L637.365 43.8179ZM648.567 54.1504C650.806 54.1504 652.228 52.5747 652.228 50.2129C652.228 47.8442 650.806 46.2651 648.567 46.2651C646.332 46.2651 644.91 47.8442 644.91 50.2129C644.91 52.5747 646.332 54.1504 648.567 54.1504ZM648.577 52.708C647.34 52.708 646.732 51.604 646.732 50.2061C646.732 48.8081 647.34 47.6904 648.577 47.6904C649.794 47.6904 650.403 48.8081 650.403 50.2061C650.403 51.604 649.794 52.708 648.577 52.708ZM655.547 43.8179L653.749 43.8179L653.749 54L655.547 54L655.547 43.8179ZM662.266 50.7871C662.266 51.9526 661.435 52.5269 660.639 52.5269C659.774 52.5269 659.196 51.9185 659.196 50.9478L659.196 46.3643L657.399 46.3643L657.399 51.2246C657.399 53.0601 658.441 54.0991 659.942 54.0991C661.087 54.0991 661.89 53.4976 662.238 52.6431L662.32 52.6431L662.32 54L664.064 54L664.064 46.3643L662.266 46.3643L662.266 50.7871ZM665.915 54L667.713 54L667.713 49.355C667.713 48.4185 668.338 47.7793 669.114 47.7793C669.876 47.7793 670.399 48.292 670.399 49.0781L670.399 54L672.163 54L672.163 49.2388C672.163 48.3774 672.676 47.7793 673.544 47.7793C674.272 47.7793 674.846 48.2065 674.846 49.1533L674.846 54L676.651 54L676.651 48.873C676.651 47.1675 675.666 46.2651 674.265 46.2651C673.158 46.2651 672.313 46.812 671.975 47.6597L671.893 47.6597C671.602 46.7949 670.861 46.2651 669.832 46.2651C668.807 46.2651 668.041 46.7915 667.723 47.6597L667.634 47.6597L667.634 46.3643L665.915 46.3643L665.915 54ZM681.863 54.1504C683.641 54.1504 684.864 53.2788 685.182 51.9526L683.504 51.7612C683.258 52.4106 682.663 52.7456 681.887 52.7456C680.725 52.7456 679.953 51.98 679.939 50.6743L685.258 50.6743L685.258 50.1206C685.258 47.4409 683.648 46.2651 681.768 46.2651C679.58 46.2651 678.155 47.8716 678.155 50.2266C678.155 52.6226 679.56 54.1504 681.863 54.1504ZM679.943 49.4609C679.997 48.4868 680.718 47.6665 681.792 47.6665C682.827 47.6665 683.521 48.4219 683.531 49.4609L679.943 49.4609ZM690.7 49.8472C690.7 52.3286 691.363 54.3931 692.669 56.1636L694.364 56.1636C693.356 54.8511 692.577 52.2056 692.577 49.8472C692.577 47.4888 693.356 44.8433 694.364 43.5308L692.669 43.5308C691.363 45.3013 690.7 47.3691 690.7 49.8472ZM695.744 54L702.723 54L702.723 52.4585L698.287 52.4585L698.287 52.3901L700.044 50.606C702.023 48.7056 702.57 47.7793 702.57 46.6309C702.57 44.9253 701.182 43.6777 699.134 43.6777C697.114 43.6777 695.682 44.9321 695.682 46.8667L697.439 46.8667C697.439 45.8276 698.095 45.1748 699.107 45.1748C700.078 45.1748 700.799 45.7661 700.799 46.7266C700.799 47.5776 700.283 48.1826 699.278 49.2012L695.744 52.667L695.744 54ZM704.041 52.1099L708.898 52.1099L708.898 54L710.658 54L710.658 52.1099L711.96 52.1099L711.96 50.5957L710.658 50.5957L710.658 43.8179L708.361 43.8179L704.041 50.6436L704.041 52.1099ZM708.918 50.5957L705.931 50.5957L705.931 50.5137L708.84 45.9062L708.918 45.9062L708.918 50.5957ZM715.365 49.5259C715.365 48.4219 716.052 47.7861 717.016 47.7861C717.96 47.7861 718.517 48.3877 718.517 49.4165L718.517 54L720.318 54L720.318 49.1362C720.318 47.2939 719.272 46.2651 717.686 46.2651C716.514 46.2651 715.769 46.7949 715.417 47.6597L715.324 47.6597L715.324 43.8179L713.568 43.8179L713.568 54L715.365 54L715.365 49.5259ZM725.358 49.8472C725.358 47.3691 724.698 45.3047 723.389 43.5342L721.694 43.5342C722.702 44.8467 723.485 47.4922 723.485 49.8472C723.485 52.209 722.702 54.8545 721.694 56.167L723.389 56.167C724.698 54.3965 725.358 52.3286 725.358 49.8472Z" fill="#FFFFFF" fill-opacity="1.000000" fill-rule="evenodd" />
    <path id="Bitcoin" d="M249.41 117L253.613 117C256.363 117 257.5 115.66 257.5 113.91C257.5 112.066 256.227 111.066 255.16 111L255.16 110.887C256.16 110.613 257.047 109.953 257.047 108.453C257.047 106.75 255.91 105.363 253.477 105.363L249.41 105.363L249.41 117ZM250.816 115.75L250.816 111.703L253.684 111.703C255.203 111.703 256.16 112.727 256.16 113.91C256.16 114.934 255.453 115.75 253.613 115.75L250.816 115.75ZM250.816 110.477L250.816 106.613L253.477 106.613C255.023 106.613 255.703 107.434 255.703 108.453C255.703 109.684 254.703 110.477 253.434 110.477L250.816 110.477ZM259.796 117L261.135 117L261.135 108.273L259.796 108.273L259.796 117ZM260.479 106.816C261.003 106.816 261.432 106.41 261.432 105.91C261.432 105.41 261.003 105 260.479 105C259.956 105 259.522 105.41 259.522 105.91C259.522 106.41 259.956 106.816 260.479 106.816ZM267.548 108.273L265.685 108.273L265.685 106.184L264.341 106.184L264.341 108.273L263.025 108.273L263.025 109.41L264.341 109.41L264.341 114.863C264.341 116.387 265.571 117.113 266.708 117.113C267.208 117.113 267.525 117.023 267.708 116.953L267.435 115.75C267.321 115.773 267.138 115.816 266.841 115.816C266.251 115.816 265.685 115.637 265.685 114.5L265.685 109.41L267.548 109.41L267.548 108.273ZM273.185 117.184C275.115 117.184 276.388 116 276.615 114.453L275.275 114.453C275.025 115.41 274.228 115.977 273.185 115.977C271.595 115.977 270.572 114.66 270.572 112.637C270.572 110.66 271.615 109.363 273.185 109.363C274.365 109.363 275.072 110.09 275.275 110.887L276.615 110.887C276.388 109.25 275.002 108.16 273.162 108.16C270.799 108.16 269.228 110.023 269.228 112.684C269.228 115.297 270.728 117.184 273.185 117.184ZM282.277 117.184C284.64 117.184 286.23 115.387 286.23 112.684C286.23 109.953 284.64 108.16 282.277 108.16C279.914 108.16 278.32 109.953 278.32 112.684C278.32 115.387 279.914 117.184 282.277 117.184ZM282.277 115.977C280.48 115.977 279.664 114.434 279.664 112.684C279.664 110.934 280.48 109.363 282.277 109.363C284.07 109.363 284.89 110.934 284.89 112.684C284.89 114.434 284.07 115.977 282.277 115.977ZM288.436 117L289.776 117L289.776 108.273L288.436 108.273L288.436 117ZM289.119 106.816C289.643 106.816 290.072 106.41 290.072 105.91C290.072 105.41 289.643 105 289.119 105C288.596 105 288.162 105.41 288.162 105.91C288.162 106.41 288.596 106.816 289.119 106.816ZM293.731 111.75C293.731 110.227 294.676 109.363 295.961 109.363C297.204 109.363 297.961 110.176 297.961 111.547L297.961 117L299.301 117L299.301 111.453C299.301 109.227 298.114 108.16 296.348 108.16C295.028 108.16 294.211 108.75 293.801 109.637L293.688 109.637L293.688 108.273L292.391 108.273L292.391 117L293.731 117L293.731 111.75Z" fill="#F2F2F2" fill-opacity="1.000000" fill-rule="evenodd" />
    <path id="BTC" d="M249.265 92L255.48 92C258.747 92 260.485 90.2959 260.485 87.9814C260.485 85.8281 258.942 84.5293 257.292 84.4512L257.292 84.3096C258.801 83.9678 259.919 82.8936 259.919 81.1846C259.919 79.002 258.298 77.4541 255.09 77.4541L249.265 77.4541L249.265 92ZM252.341 89.4854L252.341 85.623L254.919 85.623C256.394 85.623 257.312 86.4727 257.312 87.6738C257.312 88.7676 256.564 89.4854 254.846 89.4854L252.341 89.4854ZM252.341 83.543L252.341 79.9395L254.675 79.9395C256.042 79.9395 256.813 80.6426 256.813 81.6924C256.813 82.8447 255.876 83.543 254.621 83.543L252.341 83.543ZM261.925 79.9883L266.378 79.9883L266.378 92L269.42 92L269.42 79.9883L273.874 79.9883L273.874 77.4541L261.925 77.4541L261.925 79.9883ZM288.034 82.5469C287.629 79.1875 285.09 77.2539 281.721 77.2539C277.878 77.2539 274.948 79.9688 274.948 84.7295C274.948 89.4707 277.829 92.2002 281.721 92.2002C285.451 92.2002 287.702 89.7197 288.034 87.0439L284.924 87.0293C284.636 88.582 283.41 89.4805 281.77 89.4805C279.562 89.4805 278.063 87.8398 278.063 84.7295C278.063 81.7021 279.543 79.9736 281.794 79.9736C283.474 79.9736 284.689 80.9502 284.924 82.5469L288.034 82.5469Z" fill="#FFFFFF" fill-opacity="1.000000" fill-rule="evenodd" />
    <circle id="Ellipse 9" cx="212.000000" cy="96.000000" r="20.000000" fill="#C4C4C4" fill-opacity="1.000000" />
    <rect id="logos:bitcoin" width="40.000000" height="40.000000" transform="translate(192.000000 76.000000)" fill="#FFFFFF" fill-opacity="0" />
    <g clip-path="url(#clip24_45)">
        <path id="Vector" d="M231.402 100.837C228.729 111.557 217.869 118.073 207.164 115.401C196.443 112.729 189.927 101.868 192.599 91.1634C195.271 80.4434 206.117 73.9268 216.837 76.5992C227.542 79.2558 234.074 90.1164 231.402 100.837Z" fill="url(#paint_linear_24_46_0)" fill-opacity="1.000000" fill-rule="nonzero" />
        <path id="Vector" d="M221.522 93.5078C221.913 90.8516 219.897 89.4141 217.116 88.4609L218.022 84.8516L215.835 84.3047L214.96 87.8203C214.382 87.6797 213.788 87.5391 213.194 87.4141L214.069 83.8828L211.882 83.3359L210.991 86.9297C210.507 86.8203 210.038 86.7109 209.585 86.6016L209.585 86.5859L206.554 85.8359L205.976 88.1797C205.976 88.1797 207.601 88.5547 207.569 88.5703C208.46 88.7891 208.616 89.3828 208.585 89.8516L207.554 93.9609C207.616 93.9766 207.694 93.9922 207.788 94.0391C207.71 94.0234 207.632 94.0078 207.554 93.9766L206.116 99.7266C206.007 99.9922 205.726 100.398 205.116 100.242C205.132 100.273 203.522 99.8516 203.522 99.8516L202.429 102.367L205.288 103.086C205.819 103.227 206.335 103.352 206.851 103.492L205.944 107.133L208.132 107.68L209.038 104.07C209.632 104.227 210.226 104.383 210.788 104.523L209.897 108.117L212.085 108.664L212.991 105.023C216.741 105.727 219.554 105.445 220.726 102.055C221.679 99.3359 220.679 97.7578 218.71 96.7266C220.163 96.3984 221.241 95.4453 221.522 93.5078ZM216.507 100.539C215.835 103.258 211.241 101.789 209.757 101.414L210.96 96.5859C212.444 96.9609 217.226 97.6953 216.507 100.539ZM217.194 93.4609C216.569 95.9453 212.757 94.6797 211.522 94.3672L212.616 89.9922C213.851 90.3047 217.835 90.8828 217.194 93.4609Z" fill="#FFFFFF" fill-opacity="1.000000" fill-rule="nonzero" />
    </g>
    <path id="$6750" d="M377.637 104.453L378.566 104.453L378.566 103.188C380.953 103.023 382.297 101.613 382.297 99.8398C382.297 97.6602 380.227 96.9531 379.023 96.6367L378.566 96.5117L378.566 92.4727C379.773 92.5898 380.648 93.2383 380.773 94.2734L382.137 94.2734C382.078 92.6133 380.625 91.3516 378.566 91.2148L378.566 89.9102L377.637 89.9102L377.637 91.2344C375.688 91.4336 374.227 92.6719 374.227 94.4531C374.227 96.0234 375.363 96.9531 377.184 97.4766L377.637 97.6094L377.637 101.91C376.441 101.785 375.465 101.172 375.363 100L373.91 100C374.039 101.789 375.402 103.039 377.637 103.188L377.637 104.453ZM378.566 101.91L378.566 97.875L378.613 97.8867C379.84 98.2266 380.934 98.6602 380.934 99.8164C380.934 100.961 379.941 101.754 378.566 101.91ZM377.637 96.2617C376.773 96.0156 375.59 95.5391 375.59 94.3867C375.59 93.4023 376.387 92.6523 377.637 92.4883L377.637 96.2617ZM388.271 103.16C390.626 103.188 392.158 101.414 392.158 99.25C392.158 97 390.494 95.3867 388.501 95.3867C387.302 95.3867 386.271 95.9727 385.638 96.9336L385.544 96.9336C385.552 94.0977 386.654 92.4531 388.455 92.4531C389.681 92.4531 390.419 93.2266 390.681 94.2734L392.068 94.2734C391.783 92.4648 390.408 91.2031 388.455 91.2031C385.833 91.2031 384.228 93.5234 384.228 97.6367C384.228 101.938 386.365 103.137 388.271 103.16ZM388.271 101.91C386.814 101.91 385.744 100.664 385.751 99.2734C385.755 97.8789 386.876 96.6367 388.318 96.6367C389.744 96.6367 390.794 97.8086 390.794 99.25C390.794 100.727 389.701 101.91 388.271 101.91ZM394.748 103L396.229 103L401.408 92.6836L401.408 91.3633L393.955 91.3633L393.955 92.6133L399.955 92.6133L399.955 92.7031L394.748 103ZM406.999 103.16C409.218 103.16 410.843 101.523 410.843 99.2969C410.843 97.0391 409.272 95.3867 407.136 95.3867C406.35 95.3867 405.593 95.6641 405.112 96.0469L405.046 96.0469L405.456 92.6133L410.319 92.6133L410.319 91.3633L404.272 91.3633L403.569 97.0898L404.886 97.25C405.37 96.9023 406.194 96.6523 406.909 96.6602C408.393 96.6719 409.475 97.7969 409.475 99.3164C409.475 100.812 408.433 101.91 406.999 101.91C405.808 101.91 404.858 101.141 404.749 100.09L403.386 100.09C403.472 101.863 404.999 103.16 406.999 103.16ZM416.886 103.16C419.453 103.16 420.933 100.984 420.933 97.1836C420.933 93.4102 419.433 91.2031 416.886 91.2031C414.339 91.2031 412.839 93.4102 412.839 97.1836C412.839 100.984 414.32 103.16 416.886 103.16ZM416.886 101.91C415.195 101.91 414.203 100.211 414.203 97.1836C414.203 94.1602 415.203 92.4336 416.886 92.4336C418.57 92.4336 419.57 94.1602 419.57 97.1836C419.57 100.211 418.578 101.91 416.886 101.91Z" fill="#F2F2F2" fill-opacity="1.000000" fill-rule="evenodd" />
    <g opacity="0.100000">
        <circle id="Ellipse 44" cx="502.000000" cy="97.000000" r="8.000000" fill="#8FFFBE" fill-opacity="1.000000" />
    </g>
    <rect id="ant-design:caret-up-outlined" width="10.000000" height="10.000000" transform="translate(497.000000 92.000000)" fill="#FFFFFF" fill-opacity="0" />
    <g clip-path="url(#clip24_52)">
        <path id="Vector" d="M505.388 98.7288L502.181 95.01C502.089 94.9036 501.912 94.9036 501.819 95.01L498.612 98.7288C498.493 98.8674 498.601 99.0706 498.793 99.0706L505.207 99.0706C505.399 99.0706 505.507 98.8674 505.388 98.7288Z" fill="#8FFFBE" fill-opacity="1.000000" fill-rule="nonzero" />
    </g>
    <path id="+7.3%" d="M522.637 100.953L523.91 100.953L523.91 97.8398L527.023 97.8398L527.023 96.5664L523.91 96.5664L523.91 93.4531L522.637 93.4531L522.637 96.5664L519.523 96.5664L519.523 97.8398L522.637 97.8398L522.637 100.953ZM529.748 103L531.229 103L536.408 92.6836L536.408 91.3633L528.955 91.3633L528.955 92.6133L534.955 92.6133L534.955 92.7031L529.748 103ZM537.521 103.09C538.084 103.09 538.545 102.629 538.545 102.066C538.545 101.504 538.084 101.047 537.521 101.047C536.959 101.047 536.502 101.504 536.502 102.066C536.502 102.629 536.959 103.09 537.521 103.09ZM544.432 103.16C546.686 103.16 548.362 101.746 548.362 99.8398C548.362 98.3633 547.487 97.2891 546.022 97.0469L546.022 96.9531C547.198 96.5977 547.932 95.6289 547.932 94.3164C547.932 92.6719 546.631 91.2031 544.479 91.2031C542.467 91.2031 540.795 92.4414 540.729 94.2734L542.092 94.2734C542.143 93.1133 543.245 92.4336 544.456 92.4336C545.737 92.4336 546.569 93.2109 546.569 94.3867C546.569 95.6133 545.608 96.4102 544.229 96.4102L543.295 96.4102L543.295 97.6602L544.229 97.6602C545.995 97.6602 546.979 98.5586 546.979 99.8398C546.979 101.074 545.905 101.91 544.409 101.91C543.061 101.91 541.995 101.215 541.909 100.09L540.479 100.09C540.561 101.922 542.174 103.16 544.432 103.16ZM556.614 100.816C556.614 102.09 557.411 103.16 558.887 103.16C560.341 103.16 561.137 102.09 561.137 100.816L561.137 100.203C561.137 98.9336 560.364 97.8633 558.887 97.8633C557.43 97.8633 556.614 98.9336 556.614 100.203L556.614 100.816ZM550.817 94.1602C550.817 95.4336 551.614 96.5 553.091 96.5C554.544 96.5 555.341 95.4336 555.341 94.1602L555.341 93.5469C555.341 92.2734 554.567 91.2031 553.091 91.2031C551.637 91.2031 550.817 92.2734 550.817 93.5469L550.817 94.1602ZM551.251 103L552.544 103L560.544 91.3633L559.251 91.3633L551.251 103ZM557.774 100.203C557.774 99.5 558.091 98.8398 558.887 98.8398C559.704 98.8398 559.977 99.5 559.977 100.203L559.977 100.816C559.977 101.523 559.68 102.184 558.887 102.184C558.067 102.184 557.774 101.523 557.774 100.816L557.774 100.203ZM551.977 93.5469C551.977 92.8398 552.294 92.1836 553.091 92.1836C553.911 92.1836 554.18 92.8398 554.18 93.5469L554.18 94.1602C554.18 94.8633 553.887 95.5234 553.091 95.5234C552.274 95.5234 551.977 94.8633 551.977 94.1602L551.977 93.5469Z" fill="#8FFFBE" fill-opacity="1.000000" fill-rule="evenodd" />
    <path id="$3420214" d="M639.637 104.453L640.566 104.453L640.566 103.188C642.953 103.023 644.297 101.613 644.297 99.8398C644.297 97.6602 642.227 96.9531 641.023 96.6367L640.566 96.5117L640.566 92.4727C641.773 92.5898 642.648 93.2383 642.773 94.2734L644.137 94.2734C644.078 92.6133 642.625 91.3516 640.566 91.2148L640.566 89.9102L639.637 89.9102L639.637 91.2344C637.688 91.4336 636.227 92.6719 636.227 94.4531C636.227 96.0234 637.363 96.9531 639.184 97.4766L639.637 97.6094L639.637 101.91C638.441 101.785 637.465 101.172 637.363 100L635.91 100C636.039 101.789 637.402 103.039 639.637 103.188L639.637 104.453ZM640.566 101.91L640.566 97.875L640.613 97.8867C641.84 98.2266 642.934 98.6602 642.934 99.8164C642.934 100.961 641.941 101.754 640.566 101.91ZM639.637 96.2617C638.773 96.0156 637.59 95.5391 637.59 94.3867C637.59 93.4023 638.387 92.6523 639.637 92.4883L639.637 96.2617ZM650.341 103.16C652.595 103.16 654.271 101.746 654.271 99.8398C654.271 98.3633 653.396 97.2891 651.931 97.0469L651.931 96.9531C653.107 96.5977 653.841 95.6289 653.841 94.3164C653.841 92.6719 652.54 91.2031 650.388 91.2031C648.376 91.2031 646.705 92.4414 646.638 94.2734L648.001 94.2734C648.052 93.1133 649.154 92.4336 650.365 92.4336C651.646 92.4336 652.478 93.2109 652.478 94.3867C652.478 95.6133 651.517 96.4102 650.138 96.4102L649.205 96.4102L649.205 97.6602L650.138 97.6602C651.904 97.6602 652.888 98.5586 652.888 99.8398C652.888 101.074 651.814 101.91 650.318 101.91C648.97 101.91 647.904 101.215 647.818 100.09L646.388 100.09C646.47 101.922 648.083 103.16 650.341 103.16ZM656.32 100.613L661.797 100.613L661.797 103L663.136 103L663.136 100.613L664.726 100.613L664.726 99.3633L663.136 99.3633L663.136 91.3633L661.433 91.3633L656.32 99.4531L656.32 100.613ZM661.797 99.3633L657.839 99.3633L657.839 99.2734L661.703 93.1602L661.797 93.1602L661.797 99.3633ZM666.862 103L674.206 103L674.206 101.75L668.796 101.75L668.796 101.66L671.409 98.8633C673.409 96.7227 673.999 95.7227 673.999 94.4336C673.999 92.6367 672.546 91.2031 670.499 91.2031C668.46 91.2031 666.909 92.5898 666.909 94.6367L668.249 94.6367C668.249 93.3125 669.108 92.4336 670.456 92.4336C671.718 92.4336 672.683 93.2031 672.683 94.4336C672.683 95.5039 672.05 96.3008 670.706 97.7734L666.862 101.977L666.862 103ZM680.341 103.16C682.907 103.16 684.388 100.984 684.388 97.1836C684.388 93.4102 682.888 91.2031 680.341 91.2031C677.794 91.2031 676.294 93.4102 676.294 97.1836C676.294 100.984 677.775 103.16 680.341 103.16ZM680.341 101.91C678.65 101.91 677.657 100.211 677.657 97.1836C677.657 94.1602 678.657 92.4336 680.341 92.4336C682.025 92.4336 683.025 94.1602 683.025 97.1836C683.025 100.211 682.032 101.91 680.341 101.91ZM686.544 103L693.888 103L693.888 101.75L688.478 101.75L688.478 101.66L691.091 98.8633C693.091 96.7227 693.681 95.7227 693.681 94.4336C693.681 92.6367 692.228 91.2031 690.181 91.2031C688.142 91.2031 686.591 92.5898 686.591 94.6367L687.931 94.6367C687.931 93.3125 688.79 92.4336 690.138 92.4336C691.4 92.4336 692.364 93.2031 692.364 94.4336C692.364 95.5039 691.732 96.3008 690.388 97.7734L686.544 101.977L686.544 103ZM700.32 91.3633L698.909 91.3633L695.999 93.2969L695.999 94.7266L698.839 92.8398L698.909 92.8398L698.909 103L700.32 103L700.32 91.3633ZM703.388 100.613L708.865 100.613L708.865 103L710.205 103L710.205 100.613L711.794 100.613L711.794 99.3633L710.205 99.3633L710.205 91.3633L708.501 91.3633L703.388 99.4531L703.388 100.613ZM708.865 99.3633L704.908 99.3633L704.908 99.2734L708.771 93.1602L708.865 93.1602L708.865 99.3633Z" fill="#F2F2F2" fill-opacity="1.000000" fill-rule="evenodd" />
    <g filter="url(#filter_24_56_dd)">
        <rect id="Rectangle 76" x="80.000000" y="144.000000" rx="16.000000" width="610.000000" height="79.000000" fill="#4610AD" fill-opacity="1.000000" />
        <path id="Ethereum" d="M177.41 204L184.523 204L184.523 202.75L178.816 202.75L178.816 198.797L184.066 198.797L184.066 197.547L178.816 197.547L178.816 193.613L184.434 193.613L184.434 192.363L177.41 192.363L177.41 204ZM190.752 195.273L188.888 195.273L188.888 193.184L187.545 193.184L187.545 195.273L186.228 195.273L186.228 196.41L187.545 196.41L187.545 201.863C187.545 203.387 188.775 204.113 189.912 204.113C190.412 204.113 190.728 204.023 190.912 203.953L190.638 202.75C190.525 202.773 190.341 202.816 190.045 202.816C189.455 202.816 188.888 202.637 188.888 201.5L188.888 196.41L190.752 196.41L190.752 195.273ZM194.455 198.75C194.455 197.227 195.427 196.363 196.751 196.363C198.013 196.363 198.775 197.16 198.775 198.547L198.775 204L200.115 204L200.115 198.453C200.115 196.211 198.923 195.16 197.138 195.16C195.763 195.16 194.978 195.734 194.572 196.637L194.455 196.637L194.455 192.363L193.115 192.363L193.115 204L194.455 204L194.455 198.75ZM206.389 204.184C208.163 204.184 209.456 203.297 209.866 201.977L208.569 201.613C208.229 202.523 207.44 202.977 206.389 202.977C204.815 202.977 203.729 201.961 203.667 200.09L210.003 200.09L210.003 199.523C210.003 196.273 208.069 195.16 206.253 195.16C203.889 195.16 202.319 197.023 202.319 199.703C202.319 202.387 203.866 204.184 206.389 204.184ZM203.667 198.934C203.757 197.574 204.718 196.363 206.253 196.363C207.706 196.363 208.639 197.453 208.639 198.934L203.667 198.934ZM212.207 204L213.547 204L213.547 198.477C213.547 197.297 214.481 196.434 215.754 196.434C216.11 196.434 216.481 196.5 216.571 196.523L216.571 195.16C216.418 195.148 216.067 195.137 215.868 195.137C214.821 195.137 213.915 195.727 213.594 196.59L213.504 196.59L213.504 195.273L212.207 195.273L212.207 204ZM221.709 204.184C223.483 204.184 224.776 203.297 225.186 201.977L223.889 201.613C223.549 202.523 222.76 202.977 221.709 202.977C220.135 202.977 219.049 201.961 218.987 200.09L225.323 200.09L225.323 199.523C225.323 196.273 223.389 195.16 221.573 195.16C219.209 195.16 217.639 197.023 217.639 199.703C217.639 202.387 219.186 204.184 221.709 204.184ZM218.987 198.934C219.077 197.574 220.038 196.363 221.573 196.363C223.026 196.363 223.959 197.453 223.959 198.934L218.987 198.934ZM233.027 200.434C233.027 202.066 231.777 202.816 230.777 202.816C229.664 202.816 228.867 202 228.867 200.727L228.867 195.273L227.527 195.273L227.527 200.816C227.527 203.047 228.711 204.113 230.348 204.113C231.664 204.113 232.527 203.41 232.938 202.523L233.027 202.523L233.027 204L234.367 204L234.367 195.273L233.027 195.273L233.027 200.434ZM236.983 204L238.323 204L238.323 198.547C238.323 197.266 239.256 196.363 240.303 196.363C241.319 196.363 242.03 197.027 242.03 198.023L242.03 204L243.393 204L243.393 198.316C243.393 197.191 244.096 196.363 245.323 196.363C246.28 196.363 247.096 196.871 247.096 198.16L247.096 204L248.44 204L248.44 198.16C248.44 196.109 247.334 195.16 245.78 195.16C244.53 195.16 243.616 195.734 243.167 196.637L243.073 196.637C242.643 195.703 241.881 195.16 240.733 195.16C239.596 195.16 238.756 195.703 238.393 196.637L238.28 196.637L238.28 195.273L236.983 195.273L236.983 204Z" fill="#F2F2F2" fill-opacity="1.000000" fill-rule="evenodd" />
        <path id="ETH" d="M177.265 179L187.094 179L187.094 176.466L180.341 176.466L180.341 172.989L186.562 172.989L186.562 170.455L180.341 170.455L180.341 166.988L187.064 166.988L187.064 164.454L177.265 164.454L177.265 179ZM188.959 166.988L193.413 166.988L193.413 179L196.455 179L196.455 166.988L200.908 166.988L200.908 164.454L188.959 164.454L188.959 166.988ZM202.883 179L205.959 179L205.959 172.989L212.199 172.989L212.199 179L215.27 179L215.27 164.454L212.199 164.454L212.199 170.455L205.959 170.455L205.959 164.454L202.883 164.454L202.883 179Z" fill="#FFFFFF" fill-opacity="1.000000" fill-rule="evenodd" />
        <path id="Shape" d="M159.892 184C159.892 194.988 150.984 203.895 139.997 203.895C129.01 203.895 120.103 194.988 120.103 184C120.103 173.013 129.01 164.105 139.997 164.105C150.984 164.105 159.892 173.013 159.892 184Z" fill="#6374C3" fill-opacity="1.000000" fill-rule="nonzero" />
        <path id="Shape" d="M139.933 174.769L139.81 175.187L139.81 187.306L139.933 187.429L145.559 184.104L139.933 174.769Z" fill="#FFFFFF" fill-opacity="1.000000" fill-rule="nonzero" />
        <path id="Shape" d="M139.933 174.769L134.307 184.104L139.933 187.429L139.933 181.547L139.933 174.769Z" fill="#FFFFFF" fill-opacity="1.000000" fill-rule="nonzero" />
        <path id="Shape" d="M139.933 189.259L139.863 189.344L139.863 193.661L139.933 193.863L145.562 185.936L139.933 189.259Z" fill="#FFFFFF" fill-opacity="1.000000" fill-rule="nonzero" />
        <path id="Shape" d="M139.933 193.863L139.933 189.259L134.307 185.936L139.933 193.863Z" fill="#FFFFFF" fill-opacity="1.000000" fill-rule="nonzero" />
        <path id="Shape" d="M139.934 187.43L145.56 184.105L139.934 181.548L139.934 187.43Z" fill="#FFFFFF" fill-opacity="1.000000" fill-rule="nonzero" />
        <path id="Shape" d="M134.307 184.105L139.933 187.43L139.933 181.548L134.307 184.105Z" fill="#FFFFFF" fill-opacity="1.000000" fill-rule="nonzero" />
        <path id="$156.83" d="M305.637 191.453L306.566 191.453L306.566 190.188C308.953 190.023 310.297 188.613 310.297 186.84C310.297 184.66 308.227 183.953 307.023 183.637L306.566 183.512L306.566 179.473C307.773 179.59 308.648 180.238 308.773 181.273L310.137 181.273C310.078 179.613 308.625 178.352 306.566 178.215L306.566 176.91L305.637 176.91L305.637 178.234C303.688 178.434 302.227 179.672 302.227 181.453C302.227 183.023 303.363 183.953 305.184 184.477L305.637 184.609L305.637 188.91C304.441 188.785 303.465 188.172 303.363 187L301.91 187C302.039 188.789 303.402 190.039 305.637 190.188L305.637 191.453ZM306.566 188.91L306.566 184.875L306.613 184.887C307.84 185.227 308.934 185.66 308.934 186.816C308.934 187.961 307.941 188.754 306.566 188.91ZM305.637 183.262C304.773 183.016 303.59 182.539 303.59 181.387C303.59 180.402 304.387 179.652 305.637 179.488L305.637 183.262ZM316.501 178.363L315.091 178.363L312.181 180.297L312.181 181.727L315.021 179.84L315.091 179.84L315.091 190L316.501 190L316.501 178.363ZM323.476 190.16C325.695 190.16 327.32 188.523 327.32 186.297C327.32 184.039 325.75 182.387 323.613 182.387C322.828 182.387 322.07 182.664 321.589 183.047L321.523 183.047L321.933 179.613L326.797 179.613L326.797 178.363L320.75 178.363L320.047 184.09L321.363 184.25C321.847 183.902 322.672 183.652 323.386 183.66C324.871 183.672 325.953 184.797 325.953 186.316C325.953 187.812 324.91 188.91 323.476 188.91C322.285 188.91 321.336 188.141 321.226 187.09L319.863 187.09C319.949 188.863 321.476 190.16 323.476 190.16ZM333.43 190.16C335.786 190.188 337.317 188.414 337.317 186.25C337.317 184 335.653 182.387 333.661 182.387C332.461 182.387 331.43 182.973 330.797 183.934L330.703 183.934C330.711 181.098 331.813 179.453 333.614 179.453C334.84 179.453 335.578 180.227 335.84 181.273L337.227 181.273C336.942 179.465 335.567 178.203 333.614 178.203C330.993 178.203 329.387 180.523 329.387 184.637C329.387 188.938 331.524 190.137 333.43 190.16ZM333.43 188.91C331.973 188.91 330.903 187.664 330.911 186.273C330.914 184.879 332.036 183.637 333.477 183.637C334.903 183.637 335.953 184.809 335.953 186.25C335.953 187.727 334.86 188.91 333.43 188.91ZM339.999 190.09C340.561 190.09 341.022 189.629 341.022 189.066C341.022 188.504 340.561 188.047 339.999 188.047C339.436 188.047 338.979 188.504 338.979 189.066C338.979 189.629 339.436 190.09 339.999 190.09ZM346.775 190.16C349.095 190.16 350.716 188.801 350.728 186.91C350.716 185.438 349.732 184.188 348.478 183.953L348.478 183.887C349.567 183.602 350.282 182.535 350.294 181.297C350.282 179.523 348.794 178.203 346.775 178.203C344.728 178.203 343.239 179.523 343.251 181.297C343.239 182.535 343.954 183.602 345.067 183.887L345.067 183.953C343.79 184.188 342.806 185.438 342.817 186.91C342.806 188.801 344.427 190.16 346.775 190.16ZM346.775 188.91C345.177 188.91 344.192 188.09 344.204 186.84C344.192 185.527 345.278 184.59 346.775 184.59C348.243 184.59 349.329 185.527 349.341 186.84C349.329 188.09 348.345 188.91 346.775 188.91ZM346.775 183.387C345.501 183.387 344.603 182.59 344.614 181.387C344.603 180.203 345.466 179.434 346.775 179.434C348.056 179.434 348.919 180.203 348.931 181.387C348.919 182.59 348.025 183.387 346.775 183.387ZM356.841 190.16C359.095 190.16 360.771 188.746 360.771 186.84C360.771 185.363 359.896 184.289 358.431 184.047L358.431 183.953C359.607 183.598 360.341 182.629 360.341 181.316C360.341 179.672 359.04 178.203 356.888 178.203C354.876 178.203 353.205 179.441 353.138 181.273L354.501 181.273C354.552 180.113 355.654 179.434 356.865 179.434C358.146 179.434 358.978 180.211 358.978 181.387C358.978 182.613 358.017 183.41 356.638 183.41L355.705 183.41L355.705 184.66L356.638 184.66C358.404 184.66 359.388 185.559 359.388 186.84C359.388 188.074 358.314 188.91 356.818 188.91C355.47 188.91 354.404 188.215 354.318 187.09L352.888 187.09C352.97 188.922 354.583 190.16 356.841 190.16Z" fill="#F2F2F2" fill-opacity="1.000000" fill-rule="evenodd" />
        <g opacity="0.100000">
            <circle id="Ellipse 45" cx="430.000000" cy="184.000000" r="8.000000" fill="#FF7676" fill-opacity="1.000000" />
        </g>
        <rect id="ant-design:caret-down-outlined" width="10.000000" height="10.000000" transform="translate(425.000000 179.000000)" fill="#FFFFFF" fill-opacity="0" />
        <g clip-path="url(#clip24_76)">
            <path id="Vector" d="M433.207 181.93L426.793 181.93C426.601 181.93 426.493 182.133 426.612 182.271L429.819 185.99C429.911 186.097 430.088 186.097 430.181 185.99L433.388 182.271C433.507 182.133 433.399 181.93 433.207 181.93Z" fill="#FF7676" fill-opacity="1.000000" fill-rule="nonzero" />
        </g>
        <path id="-0.9%" d="M452.227 183.559L447.137 183.559L447.137 184.809L452.227 184.809L452.227 183.559ZM458.364 190.16C460.93 190.16 462.411 187.984 462.411 184.184C462.411 180.41 460.911 178.203 458.364 178.203C455.817 178.203 454.317 180.41 454.317 184.184C454.317 187.984 455.797 190.16 458.364 190.16ZM458.364 188.91C456.672 188.91 455.68 187.211 455.68 184.184C455.68 181.16 456.68 179.434 458.364 179.434C460.047 179.434 461.047 181.16 461.047 184.184C461.047 187.211 460.055 188.91 458.364 188.91ZM465.158 190.09C465.72 190.09 466.181 189.629 466.181 189.066C466.181 188.504 465.72 188.047 465.158 188.047C464.595 188.047 464.138 188.504 464.138 189.066C464.138 189.629 464.595 190.09 465.158 190.09ZM472.16 178.203C469.797 178.176 468.273 179.953 468.273 182.09C468.273 184.34 469.934 185.953 471.934 185.953C473.137 185.953 474.16 185.363 474.797 184.41L474.887 184.41C474.887 187.273 473.773 188.91 471.977 188.91C470.75 188.91 470 188.137 469.75 187.066L468.363 187.066C468.637 188.91 470.023 190.16 471.977 190.16C474.59 190.16 476.203 187.84 476.203 183.703C476.203 179.434 474.066 178.227 472.16 178.203ZM472.16 179.453C473.613 179.453 474.684 180.703 474.684 182.066C474.684 183.453 473.547 184.703 472.113 184.703C470.684 184.703 469.637 183.547 469.637 182.09C469.637 180.637 470.727 179.453 472.16 179.453ZM484.364 187.816C484.364 189.09 485.161 190.16 486.637 190.16C488.091 190.16 488.887 189.09 488.887 187.816L488.887 187.203C488.887 185.934 488.114 184.863 486.637 184.863C485.18 184.863 484.364 185.934 484.364 187.203L484.364 187.816ZM478.567 181.16C478.567 182.434 479.364 183.5 480.841 183.5C482.294 183.5 483.091 182.434 483.091 181.16L483.091 180.547C483.091 179.273 482.317 178.203 480.841 178.203C479.387 178.203 478.567 179.273 478.567 180.547L478.567 181.16ZM479.001 190L480.294 190L488.294 178.363L487.001 178.363L479.001 190ZM485.524 187.203C485.524 186.5 485.841 185.84 486.637 185.84C487.454 185.84 487.727 186.5 487.727 187.203L487.727 187.816C487.727 188.523 487.43 189.184 486.637 189.184C485.817 189.184 485.524 188.523 485.524 187.816L485.524 187.203ZM479.727 180.547C479.727 179.84 480.044 179.184 480.841 179.184C481.661 179.184 481.93 179.84 481.93 180.547L481.93 181.16C481.93 181.863 481.637 182.523 480.841 182.523C480.024 182.523 479.727 181.863 479.727 181.16L479.727 180.547Z" fill="#FF7676" fill-opacity="1.000000" fill-rule="evenodd" />
        <path id="$1812350" d="M567.637 191.453L568.566 191.453L568.566 190.188C570.953 190.023 572.297 188.613 572.297 186.84C572.297 184.66 570.227 183.953 569.023 183.637L568.566 183.512L568.566 179.473C569.773 179.59 570.648 180.238 570.773 181.273L572.137 181.273C572.078 179.613 570.625 178.352 568.566 178.215L568.566 176.91L567.637 176.91L567.637 178.234C565.688 178.434 564.227 179.672 564.227 181.453C564.227 183.023 565.363 183.953 567.184 184.477L567.637 184.609L567.637 188.91C566.441 188.785 565.465 188.172 565.363 187L563.91 187C564.039 188.789 565.402 190.039 567.637 190.188L567.637 191.453ZM568.566 188.91L568.566 184.875L568.613 184.887C569.84 185.227 570.934 185.66 570.934 186.816C570.934 187.961 569.941 188.754 568.566 188.91ZM567.637 183.262C566.773 183.016 565.59 182.539 565.59 181.387C565.59 180.402 566.387 179.652 567.637 179.488L567.637 183.262ZM578.501 178.363L577.091 178.363L574.181 180.297L574.181 181.727L577.021 179.84L577.091 179.84L577.091 190L578.501 190L578.501 178.363ZM585.57 190.16C587.89 190.16 589.511 188.801 589.523 186.91C589.511 185.438 588.527 184.188 587.273 183.953L587.273 183.887C588.363 183.602 589.078 182.535 589.089 181.297C589.078 179.523 587.589 178.203 585.57 178.203C583.523 178.203 582.035 179.523 582.047 181.297C582.035 182.535 582.75 183.602 583.863 183.887L583.863 183.953C582.586 184.188 581.601 185.438 581.613 186.91C581.601 188.801 583.222 190.16 585.57 190.16ZM585.57 188.91C583.972 188.91 582.988 188.09 583 186.84C582.988 185.527 584.074 184.59 585.57 184.59C587.039 184.59 588.125 185.527 588.136 186.84C588.125 188.09 587.14 188.91 585.57 188.91ZM585.57 183.387C584.297 183.387 583.398 182.59 583.41 181.387C583.398 180.203 584.261 179.434 585.57 179.434C586.851 179.434 587.714 180.203 587.726 181.387C587.714 182.59 586.82 183.387 585.57 183.387ZM595.797 178.363L594.387 178.363L591.477 180.297L591.477 181.727L594.316 179.84L594.387 179.84L594.387 190L595.797 190L595.797 178.363ZM599.135 190L606.479 190L606.479 188.75L601.069 188.75L601.069 188.66L603.682 185.863C605.682 183.723 606.272 182.723 606.272 181.434C606.272 179.637 604.819 178.203 602.772 178.203C600.733 178.203 599.182 179.59 599.182 181.637L600.522 181.637C600.522 180.312 601.381 179.434 602.729 179.434C603.99 179.434 604.955 180.203 604.955 181.434C604.955 182.504 604.322 183.301 602.979 184.773L599.135 188.977L599.135 190ZM612.75 190.16C615.004 190.16 616.68 188.746 616.68 186.84C616.68 185.363 615.805 184.289 614.34 184.047L614.34 183.953C615.516 183.598 616.25 182.629 616.25 181.316C616.25 179.672 614.95 178.203 612.797 178.203C610.786 178.203 609.114 179.441 609.047 181.273L610.411 181.273C610.461 180.113 611.563 179.434 612.774 179.434C614.055 179.434 614.887 180.211 614.887 181.387C614.887 182.613 613.926 183.41 612.547 183.41L611.614 183.41L611.614 184.66L612.547 184.66C614.313 184.66 615.297 185.559 615.297 186.84C615.297 188.074 614.223 188.91 612.727 188.91C611.379 188.91 610.313 188.215 610.227 187.09L608.797 187.09C608.879 188.922 610.493 190.16 612.75 190.16ZM622.635 190.16C624.854 190.16 626.479 188.523 626.479 186.297C626.479 184.039 624.909 182.387 622.772 182.387C621.987 182.387 621.229 182.664 620.749 183.047L620.682 183.047L621.092 179.613L625.956 179.613L625.956 178.363L619.909 178.363L619.206 184.09L620.522 184.25C621.006 183.902 621.831 183.652 622.545 183.66C624.03 183.672 625.112 184.797 625.112 186.316C625.112 187.812 624.069 188.91 622.635 188.91C621.444 188.91 620.495 188.141 620.385 187.09L619.022 187.09C619.108 188.863 620.635 190.16 622.635 190.16ZM632.523 190.16C635.089 190.16 636.57 187.984 636.57 184.184C636.57 180.41 635.07 178.203 632.523 178.203C629.976 178.203 628.476 180.41 628.476 184.184C628.476 187.984 629.956 190.16 632.523 190.16ZM632.523 188.91C630.831 188.91 629.839 187.211 629.839 184.184C629.839 181.16 630.839 179.434 632.523 179.434C634.206 179.434 635.206 181.16 635.206 184.184C635.206 187.211 634.214 188.91 632.523 188.91Z" fill="#F2F2F2" fill-opacity="1.000000" fill-rule="evenodd" />
    </g>
    <path id="$8535" d="M377.637 278.454L378.566 278.454L378.566 277.188C380.953 277.024 382.297 275.614 382.297 273.84C382.297 271.661 380.227 270.954 379.023 270.637L378.566 270.512L378.566 266.473C379.773 266.59 380.648 267.239 380.773 268.274L382.137 268.274C382.078 266.614 380.625 265.352 378.566 265.215L378.566 263.911L377.637 263.911L377.637 265.235C375.688 265.434 374.227 266.672 374.227 268.454C374.227 270.024 375.363 270.954 377.184 271.477L377.637 271.61L377.637 275.911C376.441 275.786 375.465 275.172 375.363 274L373.91 274C374.039 275.79 375.402 277.04 377.637 277.188L377.637 278.454ZM378.566 275.911L378.566 271.875L378.613 271.887C379.84 272.227 380.934 272.661 380.934 273.817C380.934 274.961 379.941 275.754 378.566 275.911ZM377.637 270.262C376.773 270.016 375.59 269.54 375.59 268.387C375.59 267.403 376.387 266.653 377.637 266.489L377.637 270.262ZM388.138 277.161C390.458 277.161 392.08 275.801 392.091 273.911C392.08 272.438 391.095 271.188 389.841 270.954L389.841 270.887C390.931 270.602 391.646 269.536 391.658 268.297C391.646 266.524 390.158 265.204 388.138 265.204C386.091 265.204 384.603 266.524 384.615 268.297C384.603 269.536 385.318 270.602 386.431 270.887L386.431 270.954C385.154 271.188 384.169 272.438 384.181 273.911C384.169 275.801 385.79 277.161 388.138 277.161ZM388.138 275.911C386.54 275.911 385.556 275.09 385.568 273.84C385.556 272.528 386.642 271.59 388.138 271.59C389.607 271.59 390.693 272.528 390.705 273.84C390.693 275.09 389.708 275.911 388.138 275.911ZM388.138 270.387C386.865 270.387 385.966 269.59 385.978 268.387C385.966 267.204 386.83 266.434 388.138 266.434C389.419 266.434 390.283 267.204 390.294 268.387C390.283 269.59 389.388 270.387 388.138 270.387ZM397.908 277.161C400.127 277.161 401.752 275.524 401.752 273.297C401.752 271.04 400.181 269.387 398.045 269.387C397.26 269.387 396.502 269.665 396.021 270.047L395.955 270.047L396.365 266.614L401.228 266.614L401.228 265.364L395.181 265.364L394.478 271.09L395.795 271.25C396.279 270.903 397.103 270.653 397.818 270.661C399.303 270.672 400.385 271.797 400.385 273.317C400.385 274.813 399.342 275.911 397.908 275.911C396.717 275.911 395.767 275.141 395.658 274.09L394.295 274.09C394.381 275.864 395.908 277.161 397.908 277.161ZM407.932 277.161C410.186 277.161 411.862 275.747 411.862 273.84C411.862 272.364 410.987 271.29 409.522 271.047L409.522 270.954C410.698 270.598 411.432 269.629 411.432 268.317C411.432 266.672 410.131 265.204 407.979 265.204C405.967 265.204 404.295 266.442 404.229 268.274L405.592 268.274C405.643 267.114 406.745 266.434 407.956 266.434C409.237 266.434 410.069 267.211 410.069 268.387C410.069 269.614 409.108 270.411 407.729 270.411L406.795 270.411L406.795 271.661L407.729 271.661C409.495 271.661 410.479 272.559 410.479 273.84C410.479 275.075 409.405 275.911 407.909 275.911C406.561 275.911 405.495 275.215 405.409 274.09L403.979 274.09C404.061 275.922 405.674 277.161 407.932 277.161ZM417.817 277.161C420.036 277.161 421.661 275.524 421.661 273.297C421.661 271.04 420.091 269.387 417.954 269.387C417.169 269.387 416.411 269.665 415.93 270.047L415.864 270.047L416.274 266.614L421.137 266.614L421.137 265.364L415.091 265.364L414.387 271.09L415.704 271.25C416.188 270.903 417.012 270.653 417.727 270.661C419.212 270.672 420.294 271.797 420.294 273.317C420.294 274.813 419.251 275.911 417.817 275.911C416.626 275.911 415.676 275.141 415.567 274.09L414.204 274.09C414.29 275.864 415.817 277.161 417.817 277.161Z" fill="#F2F2F2" fill-opacity="1.000000" fill-rule="evenodd" />
    <g opacity="0.100000">
        <circle id="Ellipse 44" cx="502.000000" cy="271.000488" r="8.000000" fill="#8FFFBE" fill-opacity="1.000000" />
    </g>
    <rect id="ant-design:caret-up-outlined" width="10.000000" height="10.000000" transform="translate(497.000000 266.000488)" fill="#FFFFFF" fill-opacity="0" />
    <g clip-path="url(#clip24_85)">
        <path id="Vector" d="M505.388 272.729L502.181 269.01C502.089 268.904 501.912 268.904 501.819 269.01L498.612 272.729C498.493 272.868 498.601 273.071 498.793 273.071L505.207 273.071C505.399 273.071 505.507 272.868 505.388 272.729Z" fill="#8FFFBE" fill-opacity="1.000000" fill-rule="nonzero" />
    </g>
    <path id="+8.2%" d="M522.637 274.954L523.91 274.954L523.91 271.84L527.023 271.84L527.023 270.567L523.91 270.567L523.91 267.454L522.637 267.454L522.637 270.567L519.523 270.567L519.523 271.84L522.637 271.84L522.637 274.954ZM533.479 277.161C535.799 277.161 537.42 275.801 537.432 273.911C537.42 272.438 536.436 271.188 535.182 270.954L535.182 270.887C536.272 270.602 536.987 269.536 536.999 268.297C536.987 266.524 535.499 265.204 533.479 265.204C531.432 265.204 529.944 266.524 529.956 268.297C529.944 269.536 530.659 270.602 531.772 270.887L531.772 270.954C530.495 271.188 529.51 272.438 529.522 273.911C529.51 275.801 531.131 277.161 533.479 277.161ZM533.479 275.911C531.881 275.911 530.897 275.09 530.909 273.84C530.897 272.528 531.983 271.59 533.479 271.59C534.948 271.59 536.034 272.528 536.045 273.84C536.034 275.09 535.049 275.911 533.479 275.911ZM533.479 270.387C532.206 270.387 531.307 269.59 531.319 268.387C531.307 267.204 532.17 266.434 533.479 266.434C534.76 266.434 535.624 267.204 535.635 268.387C535.624 269.59 534.729 270.387 533.479 270.387ZM540.249 277.09C540.811 277.09 541.272 276.629 541.272 276.067C541.272 275.504 540.811 275.047 540.249 275.047C539.686 275.047 539.229 275.504 539.229 276.067C539.229 276.629 539.686 277.09 540.249 277.09ZM543.658 277L551.001 277L551.001 275.75L545.591 275.75L545.591 275.661L548.205 272.864C550.205 270.723 550.794 269.723 550.794 268.434C550.794 266.637 549.341 265.204 547.294 265.204C545.255 265.204 543.705 266.59 543.705 268.637L545.044 268.637C545.044 267.313 545.904 266.434 547.251 266.434C548.513 266.434 549.478 267.204 549.478 268.434C549.478 269.504 548.845 270.301 547.501 271.774L543.658 275.977L543.658 277ZM559.273 274.817C559.273 276.09 560.07 277.161 561.547 277.161C563 277.161 563.797 276.09 563.797 274.817L563.797 274.204C563.797 272.934 563.023 271.864 561.547 271.864C560.089 271.864 559.273 272.934 559.273 274.204L559.273 274.817ZM553.476 268.161C553.476 269.434 554.273 270.5 555.75 270.5C557.203 270.5 558 269.434 558 268.161L558 267.547C558 266.274 557.226 265.204 555.75 265.204C554.297 265.204 553.476 266.274 553.476 267.547L553.476 268.161ZM553.91 277L555.203 277L563.203 265.364L561.91 265.364L553.91 277ZM560.433 274.204C560.433 273.5 560.75 272.84 561.547 272.84C562.363 272.84 562.636 273.5 562.636 274.204L562.636 274.817C562.636 275.524 562.339 276.184 561.547 276.184C560.726 276.184 560.433 275.524 560.433 274.817L560.433 274.204ZM554.636 267.547C554.636 266.84 554.953 266.184 555.75 266.184C556.57 266.184 556.839 266.84 556.839 267.547L556.839 268.161C556.839 268.864 556.547 269.524 555.75 269.524C554.933 269.524 554.636 268.864 554.636 268.161L554.636 267.547Z" fill="#8FFFBE" fill-opacity="1.000000" fill-rule="evenodd" />
    <path id="$5820399" d="M639.637 278.454L640.566 278.454L640.566 277.188C642.953 277.024 644.297 275.614 644.297 273.84C644.297 271.661 642.227 270.954 641.023 270.637L640.566 270.512L640.566 266.473C641.773 266.59 642.648 267.239 642.773 268.274L644.137 268.274C644.078 266.614 642.625 265.352 640.566 265.215L640.566 263.911L639.637 263.911L639.637 265.235C637.688 265.434 636.227 266.672 636.227 268.454C636.227 270.024 637.363 270.954 639.184 271.477L639.637 271.61L639.637 275.911C638.441 275.786 637.465 275.172 637.363 274L635.91 274C636.039 275.79 637.402 277.04 639.637 277.188L639.637 278.454ZM640.566 275.911L640.566 271.875L640.613 271.887C641.84 272.227 642.934 272.661 642.934 273.817C642.934 274.961 641.941 275.754 640.566 275.911ZM639.637 270.262C638.773 270.016 637.59 269.54 637.59 268.387C637.59 267.403 638.387 266.653 639.637 266.489L639.637 270.262ZM650.044 277.161C652.263 277.161 653.888 275.524 653.888 273.297C653.888 271.04 652.318 269.387 650.181 269.387C649.396 269.387 648.638 269.665 648.158 270.047L648.091 270.047L648.501 266.614L653.365 266.614L653.365 265.364L647.318 265.364L646.615 271.09L647.931 271.25C648.415 270.903 649.24 270.653 649.955 270.661C651.439 270.672 652.521 271.797 652.521 273.317C652.521 274.813 651.478 275.911 650.044 275.911C648.853 275.911 647.904 275.141 647.794 274.09L646.431 274.09C646.517 275.864 648.044 277.161 650.044 277.161ZM659.865 277.161C662.186 277.161 663.807 275.801 663.819 273.911C663.807 272.438 662.822 271.188 661.569 270.954L661.569 270.887C662.658 270.602 663.373 269.536 663.385 268.297C663.373 266.524 661.885 265.204 659.865 265.204C657.819 265.204 656.33 266.524 656.342 268.297C656.33 269.536 657.045 270.602 658.158 270.887L658.158 270.954C656.881 271.188 655.897 272.438 655.908 273.911C655.897 275.801 657.518 277.161 659.865 277.161ZM659.865 275.911C658.268 275.911 657.283 275.09 657.295 273.84C657.283 272.528 658.369 271.59 659.865 271.59C661.334 271.59 662.42 272.528 662.432 273.84C662.42 275.09 661.436 275.911 659.865 275.911ZM659.865 270.387C658.592 270.387 657.694 269.59 657.705 268.387C657.694 267.204 658.557 266.434 659.865 266.434C661.147 266.434 662.01 267.204 662.022 268.387C662.01 269.59 661.115 270.387 659.865 270.387ZM665.999 277L673.342 277L673.342 275.75L667.932 275.75L667.932 275.661L670.545 272.864C672.545 270.723 673.135 269.723 673.135 268.434C673.135 266.637 671.682 265.204 669.635 265.204C667.596 265.204 666.045 266.59 666.045 268.637L667.385 268.637C667.385 267.313 668.245 266.434 669.592 266.434C670.854 266.434 671.819 267.204 671.819 268.434C671.819 269.504 671.186 270.301 669.842 271.774L665.999 275.977L665.999 277ZM679.477 277.161C682.044 277.161 683.524 274.985 683.524 271.184C683.524 267.411 682.024 265.204 679.477 265.204C676.93 265.204 675.43 267.411 675.43 271.184C675.43 274.985 676.911 277.161 679.477 277.161ZM679.477 275.911C677.786 275.911 676.794 274.211 676.794 271.184C676.794 268.161 677.794 266.434 679.477 266.434C681.161 266.434 682.161 268.161 682.161 271.184C682.161 274.211 681.169 275.911 679.477 275.911ZM689.614 277.161C691.868 277.161 693.544 275.747 693.544 273.84C693.544 272.364 692.669 271.29 691.204 271.047L691.204 270.954C692.38 270.598 693.114 269.629 693.114 268.317C693.114 266.672 691.813 265.204 689.661 265.204C687.649 265.204 685.977 266.442 685.911 268.274L687.274 268.274C687.325 267.114 688.427 266.434 689.637 266.434C690.919 266.434 691.751 267.211 691.751 268.387C691.751 269.614 690.79 270.411 689.411 270.411L688.477 270.411L688.477 271.661L689.411 271.661C691.177 271.661 692.161 272.559 692.161 273.84C692.161 275.075 691.087 275.911 689.591 275.911C688.243 275.911 687.177 275.215 687.091 274.09L685.661 274.09C685.743 275.922 687.356 277.161 689.614 277.161ZM699.569 265.204C697.206 265.176 695.682 266.954 695.682 269.09C695.682 271.34 697.343 272.954 699.343 272.954C700.546 272.954 701.569 272.364 702.206 271.411L702.296 271.411C702.296 274.274 701.182 275.911 699.386 275.911C698.159 275.911 697.409 275.137 697.159 274.067L695.772 274.067C696.046 275.911 697.432 277.161 699.386 277.161C701.999 277.161 703.612 274.84 703.612 270.704C703.612 266.434 701.475 265.227 699.569 265.204ZM699.569 266.454C701.022 266.454 702.093 267.704 702.093 269.067C702.093 270.454 700.956 271.704 699.522 271.704C698.093 271.704 697.046 270.547 697.046 269.09C697.046 267.637 698.136 266.454 699.569 266.454ZM709.547 265.204C707.183 265.176 705.66 266.954 705.66 269.09C705.66 271.34 707.32 272.954 709.32 272.954C710.523 272.954 711.547 272.364 712.183 271.411L712.273 271.411C712.273 274.274 711.16 275.911 709.363 275.911C708.136 275.911 707.386 275.137 707.136 274.067L705.75 274.067C706.023 275.911 707.41 277.161 709.363 277.161C711.976 277.161 713.589 274.84 713.589 270.704C713.589 266.434 711.453 265.227 709.547 265.204ZM709.547 266.454C711 266.454 712.07 267.704 712.07 269.067C712.07 270.454 710.933 271.704 709.5 271.704C708.07 271.704 707.023 270.547 707.023 269.09C707.023 267.637 708.113 266.454 709.547 266.454Z" fill="#F2F2F2" fill-opacity="1.000000" fill-rule="evenodd" />
    <path id="Litecoin" d="M249.41 291L256.227 291L256.227 289.75L250.816 289.75L250.816 279.364L249.41 279.364L249.41 291ZM258.387 291L259.726 291L259.726 282.274L258.387 282.274L258.387 291ZM259.07 280.817C259.594 280.817 260.023 280.411 260.023 279.911C260.023 279.411 259.594 279 259.07 279C258.547 279 258.113 279.411 258.113 279.911C258.113 280.411 258.547 280.817 259.07 280.817ZM266.139 282.274L264.276 282.274L264.276 280.184L262.932 280.184L262.932 282.274L261.615 282.274L261.615 283.411L262.932 283.411L262.932 288.864C262.932 290.387 264.162 291.114 265.299 291.114C265.799 291.114 266.115 291.024 266.299 290.954L266.026 289.75C265.912 289.774 265.729 289.817 265.432 289.817C264.842 289.817 264.276 289.637 264.276 288.5L264.276 283.411L266.139 283.411L266.139 282.274ZM271.889 291.184C273.663 291.184 274.956 290.297 275.366 288.977L274.069 288.614C273.729 289.524 272.94 289.977 271.889 289.977C270.315 289.977 269.229 288.961 269.167 287.09L275.503 287.09L275.503 286.524C275.503 283.274 273.569 282.161 271.753 282.161C269.389 282.161 267.819 284.024 267.819 286.704C267.819 289.387 269.366 291.184 271.889 291.184ZM269.167 285.934C269.257 284.575 270.218 283.364 271.753 283.364C273.206 283.364 274.139 284.454 274.139 285.934L269.167 285.934ZM281.254 291.184C283.184 291.184 284.457 290 284.684 288.454L283.344 288.454C283.094 289.411 282.297 289.977 281.254 289.977C279.664 289.977 278.641 288.661 278.641 286.637C278.641 284.661 279.684 283.364 281.254 283.364C282.434 283.364 283.141 284.09 283.344 284.887L284.684 284.887C284.457 283.25 283.071 282.161 281.231 282.161C278.868 282.161 277.297 284.024 277.297 286.684C277.297 289.297 278.797 291.184 281.254 291.184ZM290.346 291.184C292.709 291.184 294.299 289.387 294.299 286.684C294.299 283.954 292.709 282.161 290.346 282.161C287.983 282.161 286.389 283.954 286.389 286.684C286.389 289.387 287.983 291.184 290.346 291.184ZM290.346 289.977C288.549 289.977 287.733 288.434 287.733 286.684C287.733 284.934 288.549 283.364 290.346 283.364C292.139 283.364 292.959 284.934 292.959 286.684C292.959 288.434 292.139 289.977 290.346 289.977ZM296.505 291L297.845 291L297.845 282.274L296.505 282.274L296.505 291ZM297.188 280.817C297.712 280.817 298.141 280.411 298.141 279.911C298.141 279.411 297.712 279 297.188 279C296.665 279 296.231 279.411 296.231 279.911C296.231 280.411 296.665 280.817 297.188 280.817ZM301.8 285.75C301.8 284.227 302.745 283.364 304.031 283.364C305.273 283.364 306.031 284.176 306.031 285.547L306.031 291L307.37 291L307.37 285.454C307.37 283.227 306.183 282.161 304.417 282.161C303.097 282.161 302.281 282.75 301.87 283.637L301.757 283.637L301.757 282.274L300.46 282.274L300.46 291L301.8 291L301.8 285.75Z" fill="#F2F2F2" fill-opacity="1.000000" fill-rule="evenodd" />
    <path id="LTC" d="M249.265 266L258.576 266L258.576 263.466L252.341 263.466L252.341 251.455L249.265 251.455L249.265 266ZM258.246 253.989L262.699 253.989L262.699 266L265.741 266L265.741 253.989L270.195 253.989L270.195 251.455L258.246 251.455L258.246 253.989ZM284.355 256.547C283.95 253.188 281.411 251.254 278.042 251.254C274.199 251.254 271.269 253.969 271.269 258.73C271.269 263.471 274.15 266.201 278.042 266.201C281.772 266.201 284.023 263.72 284.355 261.044L281.245 261.03C280.957 262.583 279.731 263.481 278.091 263.481C275.884 263.481 274.384 261.84 274.384 258.73C274.384 255.703 275.864 253.974 278.115 253.974C279.795 253.974 281.01 254.951 281.245 256.547L284.355 256.547Z" fill="#FFFFFF" fill-opacity="1.000000" fill-rule="evenodd" />
    <path id="Shape" d="M231.892 271C231.892 281.988 222.984 290.895 211.997 290.895C201.01 290.895 192.103 281.988 192.103 271C192.103 260.013 201.01 251.106 211.997 251.106C222.984 251.106 231.892 260.013 231.892 271Z" fill="#59C19C" fill-opacity="1.000000" fill-rule="nonzero" />
    <path id="Shape" d="M211.301 274.348L212.194 270.987L214.307 270.215L214.833 268.24L214.814 268.191L212.735 268.951L214.233 263.308L209.983 263.308L208.023 270.672L206.387 271.27L205.846 273.306L207.481 272.709L206.326 277.049L217.638 277.049L218.363 274.348L211.301 274.348Z" fill="#FFFFFF" fill-opacity="1.000000" fill-rule="nonzero" />
</svg>
