<svg width="40" height="40" viewBox="0 0 40 40" fill="none" xmlns="http://www.w3.org/2000/svg">
<path d="M20 39.9999C31.0457 39.9999 40 31.0456 40 19.9999C40 8.95424 31.0457 -6.10352e-05 20 -6.10352e-05C8.9543 -6.10352e-05 0 8.95424 0 19.9999C0 31.0456 8.9543 39.9999 20 39.9999Z" fill="white" fill-opacity="0.1"/>
<path d="M18.8424 28.0462C14.9125 27.4706 11.8965 24.0828 11.8965 19.989C11.8965 15.8953 14.9125 12.5074 18.8424 11.9321V7.69232C12.5856 8.29078 7.69238 13.5677 7.69238 19.989C7.69238 26.4104 12.5856 31.687 18.8424 32.2857V28.0462Z" fill="white"/>
<path d="M26.9983 11.9999L26.8892 12.371V23.1392L26.9983 23.2482L31.9968 20.2936L26.9983 11.9999Z" fill="white"/>
<path d="M26.9985 11.9999L22 20.2936L26.9985 23.2482V18.0217V11.9999Z" fill="white"/>
<path d="M26.9985 24.8742L26.937 24.9492V28.7851L26.9985 28.9648L32 21.9211L26.9985 24.8742Z" fill="white"/>
<path d="M26.9985 28.9648V24.8742L22 21.9211L26.9985 28.9648Z" fill="white"/>
<path d="M26.9985 23.2481L31.9969 20.2935L26.9985 18.0216V23.2481Z" fill="white"/>
<path d="M22 20.2935L26.9984 23.2481V18.0216L22 20.2935Z" fill="white"/>
</svg>
