<svg width="523.000000" height="47.000000" viewBox="0 0 523 47" fill="none" xmlns="http://www.w3.org/2000/svg" xmlns:xlink="http://www.w3.org/1999/xlink">
	<desc>
			Created with Pixso.
	</desc>
	<defs>
		<clipPath id="clip24_85">
			<rect id="ant-design:caret-up-outlined" width="9.999998" height="10.000000" transform="translate(305.000000 19.000000)" fill="white" fill-opacity="0"/>
		</clipPath>
	</defs>
	<path id="$8535" d="M185.637 31.4531L186.566 31.4531L186.566 30.1875C188.953 30.0234 190.297 28.6133 190.297 26.8398C190.297 24.6602 188.227 23.9531 187.023 23.6367L186.566 23.5117L186.566 19.4727C187.773 19.5898 188.648 20.2383 188.773 21.2734L190.137 21.2734C190.078 19.6133 188.625 18.3516 186.566 18.2148L186.566 16.9102L185.637 16.9102L185.637 18.2344C183.688 18.4336 182.227 19.6719 182.227 21.4531C182.227 23.0234 183.363 23.9531 185.184 24.4766L185.637 24.6094L185.637 28.9102C184.441 28.7852 183.465 28.1719 183.363 27L181.91 27C182.039 28.7891 183.402 30.0391 185.637 30.1875L185.637 31.4531ZM186.566 28.9102L186.566 24.875L186.613 24.8867C187.84 25.2266 188.934 25.6602 188.934 26.8164C188.934 27.9609 187.941 28.7539 186.566 28.9102ZM185.637 23.2617C184.773 23.0156 183.59 22.5391 183.59 21.3867C183.59 20.4023 184.387 19.6523 185.637 19.4883L185.637 23.2617ZM196.138 30.1602C198.458 30.1602 200.08 28.8008 200.091 26.9102C200.08 25.4375 199.095 24.1875 197.841 23.9531L197.841 23.8867C198.931 23.6016 199.646 22.5352 199.658 21.2969C199.646 19.5234 198.158 18.2031 196.138 18.2031C194.091 18.2031 192.603 19.5234 192.615 21.2969C192.603 22.5352 193.318 23.6016 194.431 23.8867L194.431 23.9531C193.154 24.1875 192.169 25.4375 192.181 26.9102C192.169 28.8008 193.79 30.1602 196.138 30.1602ZM196.138 28.9102C194.54 28.9102 193.556 28.0898 193.568 26.8398C193.556 25.5273 194.642 24.5898 196.138 24.5898C197.607 24.5898 198.693 25.5273 198.705 26.8398C198.693 28.0898 197.708 28.9102 196.138 28.9102ZM196.138 23.3867C194.865 23.3867 193.966 22.5898 193.978 21.3867C193.966 20.2031 194.83 19.4336 196.138 19.4336C197.419 19.4336 198.283 20.2031 198.294 21.3867C198.283 22.5898 197.388 23.3867 196.138 23.3867ZM205.908 30.1602C208.127 30.1602 209.752 28.5234 209.752 26.2969C209.752 24.0391 208.181 22.3867 206.045 22.3867C205.26 22.3867 204.502 22.6641 204.021 23.0469L203.955 23.0469L204.365 19.6133L209.228 19.6133L209.228 18.3633L203.181 18.3633L202.478 24.0898L203.795 24.25C204.279 23.9023 205.103 23.6523 205.818 23.6602C207.303 23.6719 208.385 24.7969 208.385 26.3164C208.385 27.8125 207.342 28.9102 205.908 28.9102C204.717 28.9102 203.767 28.1406 203.658 27.0898L202.295 27.0898C202.381 28.8633 203.908 30.1602 205.908 30.1602ZM215.932 30.1602C218.186 30.1602 219.862 28.7461 219.862 26.8398C219.862 25.3633 218.987 24.2891 217.522 24.0469L217.522 23.9531C218.698 23.5977 219.432 22.6289 219.432 21.3164C219.432 19.6719 218.131 18.2031 215.979 18.2031C213.967 18.2031 212.295 19.4414 212.229 21.2734L213.592 21.2734C213.643 20.1133 214.745 19.4336 215.956 19.4336C217.237 19.4336 218.069 20.2109 218.069 21.3867C218.069 22.6133 217.108 23.4102 215.729 23.4102L214.795 23.4102L214.795 24.6602L215.729 24.6602C217.495 24.6602 218.479 25.5586 218.479 26.8398C218.479 28.0742 217.405 28.9102 215.909 28.9102C214.561 28.9102 213.495 28.2148 213.409 27.0898L211.979 27.0898C212.061 28.9219 213.674 30.1602 215.932 30.1602ZM225.817 30.1602C228.036 30.1602 229.661 28.5234 229.661 26.2969C229.661 24.0391 228.091 22.3867 225.954 22.3867C225.169 22.3867 224.411 22.6641 223.93 23.0469L223.864 23.0469L224.274 19.6133L229.137 19.6133L229.137 18.3633L223.091 18.3633L222.387 24.0898L223.704 24.25C224.188 23.9023 225.012 23.6523 225.727 23.6602C227.212 23.6719 228.294 24.7969 228.294 26.3164C228.294 27.8125 227.251 28.9102 225.817 28.9102C224.626 28.9102 223.676 28.1406 223.567 27.0898L222.204 27.0898C222.29 28.8633 223.817 30.1602 225.817 30.1602Z" fill="#F2F2F2" fill-opacity="1.000000" fill-rule="evenodd"/>
	<g opacity="0.100000">
		<ellipse id="Ellipse 44" cx="310.000000" cy="24.000000" rx="7.999998" ry="8.000000" fill="#8FFFBE" fill-opacity="1.000000"/>
	</g>
	<rect id="ant-design:caret-up-outlined" width="9.999998" height="10.000000" transform="translate(305.000000 19.000000)" fill="#FFFFFF" fill-opacity="0"/>
	<g clip-path="url(#clip24_85)">
		<path id="Vector" d="M313.388 25.7288L310.181 22.01C310.089 21.9036 309.912 21.9036 309.819 22.01L306.612 25.7288C306.493 25.8674 306.601 26.0706 306.793 26.0706L313.207 26.0706C313.399 26.0706 313.507 25.8674 313.388 25.7288Z" fill="#8FFFBE" fill-opacity="1.000000" fill-rule="nonzero"/>
	</g>
	<path id="+8.2%" d="M330.637 27.9531L331.91 27.9531L331.91 24.8398L335.023 24.8398L335.023 23.5664L331.91 23.5664L331.91 20.4531L330.637 20.4531L330.637 23.5664L327.523 23.5664L327.523 24.8398L330.637 24.8398L330.637 27.9531ZM341.479 30.1602C343.799 30.1602 345.42 28.8008 345.432 26.9102C345.42 25.4375 344.436 24.1875 343.182 23.9531L343.182 23.8867C344.272 23.6016 344.987 22.5352 344.999 21.2969C344.987 19.5234 343.499 18.2031 341.479 18.2031C339.432 18.2031 337.944 19.5234 337.956 21.2969C337.944 22.5352 338.659 23.6016 339.772 23.8867L339.772 23.9531C338.495 24.1875 337.51 25.4375 337.522 26.9102C337.51 28.8008 339.131 30.1602 341.479 30.1602ZM341.479 28.9102C339.881 28.9102 338.897 28.0898 338.909 26.8398C338.897 25.5273 339.983 24.5898 341.479 24.5898C342.948 24.5898 344.034 25.5273 344.045 26.8398C344.034 28.0898 343.049 28.9102 341.479 28.9102ZM341.479 23.3867C340.206 23.3867 339.307 22.5898 339.319 21.3867C339.307 20.2031 340.17 19.4336 341.479 19.4336C342.76 19.4336 343.624 20.2031 343.635 21.3867C343.624 22.5898 342.729 23.3867 341.479 23.3867ZM348.249 30.0898C348.811 30.0898 349.272 29.6289 349.272 29.0664C349.272 28.5039 348.811 28.0469 348.249 28.0469C347.686 28.0469 347.229 28.5039 347.229 29.0664C347.229 29.6289 347.686 30.0898 348.249 30.0898ZM351.658 30L359.001 30L359.001 28.75L353.591 28.75L353.591 28.6602L356.205 25.8633C358.205 23.7227 358.794 22.7227 358.794 21.4336C358.794 19.6367 357.341 18.2031 355.294 18.2031C353.255 18.2031 351.705 19.5898 351.705 21.6367L353.044 21.6367C353.044 20.3125 353.904 19.4336 355.251 19.4336C356.513 19.4336 357.478 20.2031 357.478 21.4336C357.478 22.5039 356.845 23.3008 355.501 24.7734L351.658 28.9766L351.658 30ZM367.273 27.8164C367.273 29.0898 368.07 30.1602 369.547 30.1602C371 30.1602 371.797 29.0898 371.797 27.8164L371.797 27.2031C371.797 25.9336 371.023 24.8633 369.547 24.8633C368.089 24.8633 367.273 25.9336 367.273 27.2031L367.273 27.8164ZM361.476 21.1602C361.476 22.4336 362.273 23.5 363.75 23.5C365.203 23.5 366 22.4336 366 21.1602L366 20.5469C366 19.2734 365.226 18.2031 363.75 18.2031C362.297 18.2031 361.476 19.2734 361.476 20.5469L361.476 21.1602ZM361.91 30L363.203 30L371.203 18.3633L369.91 18.3633L361.91 30ZM368.433 27.2031C368.433 26.5 368.75 25.8398 369.547 25.8398C370.363 25.8398 370.636 26.5 370.636 27.2031L370.636 27.8164C370.636 28.5234 370.339 29.1836 369.547 29.1836C368.726 29.1836 368.433 28.5234 368.433 27.8164L368.433 27.2031ZM362.636 20.5469C362.636 19.8398 362.953 19.1836 363.75 19.1836C364.57 19.1836 364.839 19.8398 364.839 20.5469L364.839 21.1602C364.839 21.8633 364.547 22.5234 363.75 22.5234C362.933 22.5234 362.636 21.8633 362.636 21.1602L362.636 20.5469Z" fill="#8FFFBE" fill-opacity="1.000000" fill-rule="evenodd"/>
	<path id="$5820399" d="M447.637 31.4531L448.566 31.4531L448.566 30.1875C450.953 30.0234 452.297 28.6133 452.297 26.8398C452.297 24.6602 450.227 23.9531 449.023 23.6367L448.566 23.5117L448.566 19.4727C449.773 19.5898 450.648 20.2383 450.773 21.2734L452.137 21.2734C452.078 19.6133 450.625 18.3516 448.566 18.2148L448.566 16.9102L447.637 16.9102L447.637 18.2344C445.688 18.4336 444.227 19.6719 444.227 21.4531C444.227 23.0234 445.363 23.9531 447.184 24.4766L447.637 24.6094L447.637 28.9102C446.441 28.7852 445.465 28.1719 445.363 27L443.91 27C444.039 28.7891 445.402 30.0391 447.637 30.1875L447.637 31.4531ZM448.566 28.9102L448.566 24.875L448.613 24.8867C449.84 25.2266 450.934 25.6602 450.934 26.8164C450.934 27.9609 449.941 28.7539 448.566 28.9102ZM447.637 23.2617C446.773 23.0156 445.59 22.5391 445.59 21.3867C445.59 20.4023 446.387 19.6523 447.637 19.4883L447.637 23.2617ZM458.044 30.1602C460.263 30.1602 461.888 28.5234 461.888 26.2969C461.888 24.0391 460.318 22.3867 458.181 22.3867C457.396 22.3867 456.638 22.6641 456.158 23.0469L456.091 23.0469L456.501 19.6133L461.365 19.6133L461.365 18.3633L455.318 18.3633L454.615 24.0898L455.931 24.25C456.415 23.9023 457.24 23.6523 457.955 23.6602C459.439 23.6719 460.521 24.7969 460.521 26.3164C460.521 27.8125 459.478 28.9102 458.044 28.9102C456.853 28.9102 455.904 28.1406 455.794 27.0898L454.431 27.0898C454.517 28.8633 456.044 30.1602 458.044 30.1602ZM467.865 30.1602C470.186 30.1602 471.807 28.8008 471.819 26.9102C471.807 25.4375 470.822 24.1875 469.569 23.9531L469.569 23.8867C470.658 23.6016 471.373 22.5352 471.385 21.2969C471.373 19.5234 469.885 18.2031 467.865 18.2031C465.819 18.2031 464.33 19.5234 464.342 21.2969C464.33 22.5352 465.045 23.6016 466.158 23.8867L466.158 23.9531C464.881 24.1875 463.897 25.4375 463.908 26.9102C463.897 28.8008 465.518 30.1602 467.865 30.1602ZM467.865 28.9102C466.268 28.9102 465.283 28.0898 465.295 26.8398C465.283 25.5273 466.369 24.5898 467.865 24.5898C469.334 24.5898 470.42 25.5273 470.432 26.8398C470.42 28.0898 469.436 28.9102 467.865 28.9102ZM467.865 23.3867C466.592 23.3867 465.694 22.5898 465.705 21.3867C465.694 20.2031 466.557 19.4336 467.865 19.4336C469.147 19.4336 470.01 20.2031 470.022 21.3867C470.01 22.5898 469.115 23.3867 467.865 23.3867ZM473.999 30L481.342 30L481.342 28.75L475.932 28.75L475.932 28.6602L478.545 25.8633C480.545 23.7227 481.135 22.7227 481.135 21.4336C481.135 19.6367 479.682 18.2031 477.635 18.2031C475.596 18.2031 474.045 19.5898 474.045 21.6367L475.385 21.6367C475.385 20.3125 476.245 19.4336 477.592 19.4336C478.854 19.4336 479.819 20.2031 479.819 21.4336C479.819 22.5039 479.186 23.3008 477.842 24.7734L473.999 28.9766L473.999 30ZM487.477 30.1602C490.044 30.1602 491.524 27.9844 491.524 24.1836C491.524 20.4102 490.024 18.2031 487.477 18.2031C484.93 18.2031 483.43 20.4102 483.43 24.1836C483.43 27.9844 484.911 30.1602 487.477 30.1602ZM487.477 28.9102C485.786 28.9102 484.794 27.2109 484.794 24.1836C484.794 21.1602 485.794 19.4336 487.477 19.4336C489.161 19.4336 490.161 21.1602 490.161 24.1836C490.161 27.2109 489.169 28.9102 487.477 28.9102ZM497.614 30.1602C499.868 30.1602 501.544 28.7461 501.544 26.8398C501.544 25.3633 500.669 24.2891 499.204 24.0469L499.204 23.9531C500.38 23.5977 501.114 22.6289 501.114 21.3164C501.114 19.6719 499.813 18.2031 497.661 18.2031C495.649 18.2031 493.977 19.4414 493.911 21.2734L495.274 21.2734C495.325 20.1133 496.426 19.4336 497.637 19.4336C498.919 19.4336 499.751 20.2109 499.751 21.3867C499.751 22.6133 498.79 23.4102 497.411 23.4102L496.477 23.4102L496.477 24.6602L497.411 24.6602C499.176 24.6602 500.161 25.5586 500.161 26.8398C500.161 28.0742 499.087 28.9102 497.591 28.9102C496.243 28.9102 495.176 28.2148 495.091 27.0898L493.661 27.0898C493.743 28.9219 495.356 30.1602 497.614 30.1602ZM507.569 18.2031C505.206 18.1758 503.683 19.9531 503.683 22.0898C503.683 24.3398 505.343 25.9531 507.343 25.9531C508.546 25.9531 509.569 25.3633 510.206 24.4102L510.296 24.4102C510.296 27.2734 509.183 28.9102 507.386 28.9102C506.159 28.9102 505.409 28.1367 505.159 27.0664L503.772 27.0664C504.046 28.9102 505.433 30.1602 507.386 30.1602C509.999 30.1602 511.612 27.8398 511.612 23.7031C511.612 19.4336 509.475 18.2266 507.569 18.2031ZM507.569 19.4531C509.022 19.4531 510.093 20.7031 510.093 22.0664C510.093 23.4531 508.956 24.7031 507.522 24.7031C506.093 24.7031 505.046 23.5469 505.046 22.0898C505.046 20.6367 506.136 19.4531 507.569 19.4531ZM517.547 18.2031C515.183 18.1758 513.66 19.9531 513.66 22.0898C513.66 24.3398 515.32 25.9531 517.32 25.9531C518.523 25.9531 519.547 25.3633 520.183 24.4102L520.273 24.4102C520.273 27.2734 519.16 28.9102 517.363 28.9102C516.136 28.9102 515.386 28.1367 515.136 27.0664L513.75 27.0664C514.023 28.9102 515.41 30.1602 517.363 30.1602C519.976 30.1602 521.589 27.8398 521.589 23.7031C521.589 19.4336 519.453 18.2266 517.547 18.2031ZM517.547 19.4531C519 19.4531 520.07 20.7031 520.07 22.0664C520.07 23.4531 518.933 24.7031 517.5 24.7031C516.07 24.7031 515.023 23.5469 515.023 22.0898C515.023 20.6367 516.113 19.4531 517.547 19.4531Z" fill="#F2F2F2" fill-opacity="1.000000" fill-rule="evenodd"/>
	<path id="Litecoin" d="M57.4102 44L64.2266 44L64.2266 42.75L58.8164 42.75L58.8164 32.3633L57.4102 32.3633L57.4102 44ZM66.3866 44L67.7264 44L67.7264 35.2734L66.3866 35.2734L66.3866 44ZM67.0702 33.8164C67.5936 33.8164 68.0233 33.4102 68.0233 32.9102C68.0233 32.4102 67.5936 32 67.0702 32C66.5467 32 66.1131 32.4102 66.1131 32.9102C66.1131 33.4102 66.5467 33.8164 67.0702 33.8164ZM74.1389 35.2734L72.2756 35.2734L72.2756 33.1836L70.9319 33.1836L70.9319 35.2734L69.6155 35.2734L69.6155 36.4102L70.9319 36.4102L70.9319 41.8633C70.9319 43.3867 72.1623 44.1133 73.299 44.1133C73.799 44.1133 74.1155 44.0234 74.299 43.9531L74.0256 42.75C73.9123 42.7734 73.7287 42.8164 73.4319 42.8164C72.842 42.8164 72.2756 42.6367 72.2756 41.5L72.2756 36.4102L74.1389 36.4102L74.1389 35.2734ZM79.8895 44.1836C81.6629 44.1836 82.9559 43.2969 83.366 41.9766L82.0691 41.6133C81.7293 42.5234 80.9402 42.9766 79.8895 42.9766C78.3152 42.9766 77.2293 41.9609 77.1668 40.0898L83.5027 40.0898L83.5027 39.5234C83.5027 36.2734 81.5691 35.1602 79.7527 35.1602C77.3895 35.1602 75.8191 37.0234 75.8191 39.7031C75.8191 42.3867 77.366 44.1836 79.8895 44.1836ZM77.1668 38.9336C77.2566 37.5742 78.2176 36.3633 79.7527 36.3633C81.2059 36.3633 82.1395 37.4531 82.1395 38.9336L77.1668 38.9336ZM89.2543 44.1836C91.184 44.1836 92.4575 43 92.684 41.4531L91.3442 41.4531C91.0942 42.4102 90.2973 42.9766 89.2543 42.9766C87.6645 42.9766 86.6411 41.6602 86.6411 39.6367C86.6411 37.6602 87.684 36.3633 89.2543 36.3633C90.434 36.3633 91.1411 37.0898 91.3442 37.8867L92.684 37.8867C92.4575 36.25 91.0708 35.1602 89.2309 35.1602C86.8676 35.1602 85.2973 37.0234 85.2973 39.6836C85.2973 42.2969 86.7973 44.1836 89.2543 44.1836ZM98.3462 44.1836C100.709 44.1836 102.299 42.3867 102.299 39.6836C102.299 36.9531 100.709 35.1602 98.3462 35.1602C95.9829 35.1602 94.3891 36.9531 94.3891 39.6836C94.3891 42.3867 95.9829 44.1836 98.3462 44.1836ZM98.3462 42.9766C96.5493 42.9766 95.7329 41.4336 95.7329 39.6836C95.7329 37.9336 96.5493 36.3633 98.3462 36.3633C100.139 36.3633 100.959 37.9336 100.959 39.6836C100.959 41.4336 100.139 42.9766 98.3462 42.9766ZM104.505 44L105.845 44L105.845 35.2734L104.505 35.2734L104.505 44ZM105.188 33.8164C105.712 33.8164 106.141 33.4102 106.141 32.9102C106.141 32.4102 105.712 32 105.188 32C104.665 32 104.231 32.4102 104.231 32.9102C104.231 33.4102 104.665 33.8164 105.188 33.8164ZM109.8 38.75C109.8 37.2266 110.745 36.3633 112.031 36.3633C113.273 36.3633 114.031 37.1758 114.031 38.5469L114.031 44L115.37 44L115.37 38.4531C115.37 36.2266 114.183 35.1602 112.417 35.1602C111.097 35.1602 110.281 35.75 109.87 36.6367L109.757 36.6367L109.757 35.2734L108.46 35.2734L108.46 44L109.8 44L109.8 38.75Z" fill="#F2F2F2" fill-opacity="1.000000" fill-rule="evenodd"/>
	<path id="LTC" d="M57.2646 19L66.5762 19L66.5762 16.4658L60.3408 16.4658L60.3408 4.4541L57.2646 4.4541L57.2646 19ZM66.2464 6.98828L70.6995 6.98828L70.6995 19L73.7415 19L73.7415 6.98828L78.1946 6.98828L78.1946 4.4541L66.2464 4.4541L66.2464 6.98828ZM92.3552 9.54688C91.9499 6.1875 89.4109 4.25391 86.0417 4.25391C82.199 4.25391 79.2693 6.96875 79.2693 11.7295C79.2693 16.4707 82.1501 19.2002 86.0417 19.2002C89.7722 19.2002 92.0232 16.7197 92.3552 14.0439L89.2449 14.0293C88.9568 15.582 87.7312 16.4805 86.0906 16.4805C83.8835 16.4805 82.3845 14.8398 82.3845 11.7295C82.3845 8.70215 83.864 6.97363 86.115 6.97363C87.7947 6.97363 89.0105 7.9502 89.2449 9.54688L92.3552 9.54688Z" fill="#FFFFFF" fill-opacity="1.000000" fill-rule="evenodd"/>
	<path id="Shape" d="M39.8916 24C39.8916 34.9875 30.9844 43.8947 19.9971 43.8947C9.00977 43.8947 0.102539 34.9875 0.102539 24C0.102539 13.0125 9.00977 4.10547 19.9971 4.10547C30.9844 4.10547 39.8916 13.0125 39.8916 24Z" fill="#59C19C" fill-opacity="1.000000" fill-rule="nonzero"/>
	<path id="Shape" d="M19.3013 27.3474L20.1938 23.9867L22.3071 23.2147L22.8325 21.2397L22.8145 21.1907L20.7349 21.9506L22.2334 16.3076L17.9829 16.3076L16.0234 23.6718L14.3867 24.2696L13.8462 26.3057L15.4814 25.7085L14.3262 30.0485L25.6377 30.0485L26.3628 27.3474L19.3013 27.3474Z" fill="#FFFFFF" fill-opacity="1.000000" fill-rule="nonzero"/>
</svg>
